<svg width="195" height="431" viewBox="0 0 195 431" fill="none" xmlns="http://www.w3.org/2000/svg">
<rect width="195" height="431" rx="10" fill="#F8F9FF"/>
<g filter="url(#filter0_d_901_6)">
<rect x="11.5474" y="17.3214" width="171.768" height="36.0858" rx="5.77373" fill="white"/>
<rect x="11.9082" y="17.6822" width="171.047" height="35.3641" rx="5.41287" stroke="#F0F2F8" stroke-width="0.721716"/>
</g>
<path d="M35.1505 31.6437V32.9485H33.0026V39.7038H31.386V32.9485H29.2382V31.6437H35.1505ZM42.277 36.3666C42.277 36.5975 42.2616 36.8054 42.2308 36.9901H37.554C37.5925 37.452 37.7542 37.8139 38.039 38.0756C38.3239 38.3373 38.6742 38.4682 39.0899 38.4682C39.6903 38.4682 40.1176 38.2103 40.3716 37.6945H42.1153C41.9305 38.3104 41.5764 38.8185 41.0529 39.2188C40.5294 39.6114 39.8866 39.8077 39.1245 39.8077C38.5086 39.8077 37.9544 39.673 37.4617 39.4036C36.9767 39.1264 36.5956 38.7377 36.3185 38.2373C36.049 37.7369 35.9143 37.1595 35.9143 36.5052C35.9143 35.8431 36.049 35.2619 36.3185 34.7615C36.5879 34.2611 36.9651 33.8762 37.4501 33.6067C37.9351 33.3373 38.4932 33.2026 39.1245 33.2026C39.7327 33.2026 40.2754 33.3335 40.7527 33.5952C41.2377 33.8569 41.6111 34.2303 41.8728 34.7153C42.1422 35.1926 42.277 35.743 42.277 36.3666ZM40.6026 35.9047C40.5949 35.489 40.4448 35.1579 40.1522 34.9116C39.8597 34.6576 39.5017 34.5305 39.0783 34.5305C38.678 34.5305 38.3393 34.6537 38.0621 34.9001C37.7927 35.1387 37.6272 35.4736 37.5656 35.9047H40.6026ZM51.4016 33.2141C52.1868 33.2141 52.8181 33.4566 53.2954 33.9416C53.7804 34.4189 54.0229 35.0887 54.0229 35.9509V39.7038H52.4062V36.1703C52.4062 35.6699 52.2792 35.2888 52.0252 35.0271C51.7711 34.7576 51.4247 34.6229 50.9859 34.6229C50.5471 34.6229 50.1968 34.7576 49.9351 35.0271C49.681 35.2888 49.554 35.6699 49.554 36.1703V39.7038H47.9374V36.1703C47.9374 35.6699 47.8104 35.2888 47.5563 35.0271C47.3023 34.7576 46.9558 34.6229 46.517 34.6229C46.0705 34.6229 45.7164 34.7576 45.4547 35.0271C45.2006 35.2888 45.0736 35.6699 45.0736 36.1703V39.7038H43.457V33.3065H45.0736V34.0802C45.2815 33.8107 45.5471 33.599 45.8704 33.4451C46.2014 33.2911 46.5632 33.2141 46.9558 33.2141C47.4562 33.2141 47.9027 33.3219 48.2953 33.5375C48.688 33.7453 48.992 34.0455 49.2076 34.4382C49.4154 34.0686 49.7157 33.7723 50.1083 33.549C50.5086 33.3258 50.9397 33.2141 51.4016 33.2141ZM57.1736 34.2303C57.3815 33.9378 57.6663 33.6953 58.0281 33.5028C58.3976 33.3027 58.8172 33.2026 59.2868 33.2026C59.8334 33.2026 60.3261 33.3373 60.7649 33.6067C61.2114 33.8762 61.5617 34.2611 61.8157 34.7615C62.0774 35.2542 62.2083 35.8277 62.2083 36.4821C62.2083 37.1364 62.0774 37.7176 61.8157 38.2257C61.5617 38.7261 61.2114 39.1149 60.7649 39.392C60.3261 39.6692 59.8334 39.8077 59.2868 39.8077C58.8172 39.8077 58.4015 39.7115 58.0397 39.519C57.6856 39.3266 57.3969 39.0841 57.1736 38.7915V42.7523H55.557V33.3065H57.1736V34.2303ZM60.557 36.4821C60.557 36.0971 60.4762 35.7661 60.3145 35.489C60.1606 35.2041 59.9527 34.9886 59.691 34.8423C59.4369 34.6961 59.1598 34.6229 58.8595 34.6229C58.567 34.6229 58.2899 34.6999 58.0281 34.8539C57.7741 35.0001 57.5662 35.2157 57.4046 35.5005C57.2506 35.7854 57.1736 36.1202 57.1736 36.5052C57.1736 36.8901 57.2506 37.2249 57.4046 37.5098C57.5662 37.7946 57.7741 38.014 58.0281 38.168C58.2899 38.3143 58.567 38.3874 58.8595 38.3874C59.1598 38.3874 59.4369 38.3104 59.691 38.1564C59.9527 38.0025 60.1606 37.7831 60.3145 37.4982C60.4762 37.2134 60.557 36.8747 60.557 36.4821ZM64.9997 31.1587V39.7038H63.3831V31.1587H64.9997ZM66.1813 36.4821C66.1813 35.8354 66.3083 35.2619 66.5623 34.7615C66.8241 34.2611 67.1743 33.8762 67.6131 33.6067C68.0596 33.3373 68.5562 33.2026 69.1028 33.2026C69.5801 33.2026 69.9958 33.2988 70.3499 33.4913C70.7117 33.6837 71.0004 33.9262 71.216 34.2188V33.3065H72.8441V39.7038H71.216V38.7685C71.0081 39.0687 70.7194 39.3189 70.3499 39.519C69.9881 39.7115 69.5685 39.8077 69.0912 39.8077C68.5523 39.8077 68.0596 39.6692 67.6131 39.392C67.1743 39.1149 66.8241 38.7261 66.5623 38.2257C66.3083 37.7176 66.1813 37.1364 66.1813 36.4821ZM71.216 36.5052C71.216 36.1125 71.139 35.7777 70.985 35.5005C70.831 35.2157 70.6232 35.0001 70.3614 34.8539C70.0997 34.6999 69.8187 34.6229 69.5185 34.6229C69.2182 34.6229 68.9411 34.6961 68.6871 34.8423C68.433 34.9886 68.2252 35.2041 68.0635 35.489C67.9095 35.7661 67.8325 36.0971 67.8325 36.4821C67.8325 36.867 67.9095 37.2057 68.0635 37.4982C68.2252 37.7831 68.433 38.0025 68.6871 38.1564C68.9488 38.3104 69.2259 38.3874 69.5185 38.3874C69.8187 38.3874 70.0997 38.3143 70.3614 38.168C70.6232 38.014 70.831 37.7985 70.985 37.5213C71.139 37.2365 71.216 36.8978 71.216 36.5052ZM76.3053 34.6345V37.7292C76.3053 37.9447 76.3553 38.1025 76.4554 38.2026C76.5632 38.295 76.7403 38.3412 76.9866 38.3412H77.7372V39.7038H76.721C75.3584 39.7038 74.6771 39.0417 74.6771 37.7176V34.6345H73.915V33.3065H74.6771V31.7245H76.3053V33.3065H77.7372V34.6345H76.3053ZM84.8469 36.3666C84.8469 36.5975 84.8315 36.8054 84.8007 36.9901H80.124C80.1625 37.452 80.3242 37.8139 80.609 38.0756C80.8938 38.3373 81.2441 38.4682 81.6598 38.4682C82.2603 38.4682 82.6875 38.2103 82.9416 37.6945H84.6852C84.5005 38.3104 84.1464 38.8185 83.6229 39.2188C83.0994 39.6114 82.4566 39.8077 81.6945 39.8077C81.0786 39.8077 80.5243 39.673 80.0316 39.4036C79.5466 39.1264 79.1656 38.7377 78.8884 38.2373C78.619 37.7369 78.4843 37.1595 78.4843 36.5052C78.4843 35.8431 78.619 35.2619 78.8884 34.7615C79.1579 34.2611 79.5351 33.8762 80.0201 33.6067C80.5051 33.3373 81.0632 33.2026 81.6945 33.2026C82.3026 33.2026 82.8453 33.3335 83.3226 33.5952C83.8076 33.8569 84.181 34.2303 84.4427 34.7153C84.7122 35.1926 84.8469 35.743 84.8469 36.3666ZM83.1725 35.9047C83.1648 35.489 83.0147 35.1579 82.7222 34.9116C82.4296 34.6576 82.0717 34.5305 81.6483 34.5305C81.248 34.5305 80.9092 34.6537 80.6321 34.9001C80.3626 35.1387 80.1971 35.4736 80.1355 35.9047H83.1725ZM88.475 39.8077C87.9515 39.8077 87.4819 39.7153 87.0662 39.5306C86.6505 39.3381 86.3194 39.0802 86.0731 38.7569C85.8345 38.4336 85.7036 38.0756 85.6805 37.683H87.3087C87.3395 37.9293 87.4588 38.1333 87.6666 38.295C87.8822 38.4567 88.1478 38.5375 88.4634 38.5375C88.7714 38.5375 89.01 38.4759 89.1794 38.3527C89.3564 38.2296 89.445 38.0718 89.445 37.8793C89.445 37.6714 89.3372 37.5175 89.1216 37.4174C88.9138 37.3096 88.5789 37.1942 88.117 37.071C87.6397 36.9555 87.2471 36.8362 86.9392 36.713C86.6389 36.5898 86.3772 36.4012 86.1539 36.1472C85.9384 35.8931 85.8306 35.5506 85.8306 35.1195C85.8306 34.7653 85.9307 34.442 86.1308 34.1495C86.3387 33.8569 86.6312 33.626 87.0084 33.4566C87.3934 33.2873 87.8437 33.2026 88.3595 33.2026C89.1216 33.2026 89.7298 33.395 90.184 33.78C90.6382 34.1572 90.8884 34.6691 90.9346 35.3158H89.3872C89.3641 35.0617 89.2563 34.8616 89.0639 34.7153C88.8791 34.5613 88.6289 34.4843 88.3133 34.4843C88.0208 34.4843 87.7937 34.5382 87.632 34.646C87.478 34.7538 87.4011 34.9039 87.4011 35.0964C87.4011 35.3119 87.5088 35.4774 87.7244 35.5929C87.9399 35.7007 88.2748 35.8123 88.729 35.9278C89.1909 36.0433 89.572 36.1626 89.8722 36.2858C90.1724 36.4089 90.4303 36.6014 90.6459 36.8631C90.8691 37.1172 90.9846 37.4559 90.9923 37.8793C90.9923 38.2488 90.8884 38.5798 90.6805 38.8724C90.4804 39.1649 90.1878 39.3959 89.8029 39.5652C89.4257 39.7269 88.9831 39.8077 88.475 39.8077Z" fill="#102870"/>
<path d="M172.49 37.5291L168.16 33.1989L163.83 37.5291" stroke="#4169E1" stroke-width="0.721716" stroke-linecap="round" stroke-linejoin="round"/>
<g filter="url(#filter1_d_901_6)">
<rect x="12.991" y="64.9545" width="53.407" height="53.407" rx="10" fill="white"/>
<path d="M37.3927 85.2371V86.1926C37.3927 86.3512 37.3857 86.5111 37.3719 86.6697C37.1781 88.8513 35.6627 90.2769 33.476 90.2769H27.4972C26.39 90.2769 25.4558 89.9176 24.7846 89.2661C24.5216 89.0244 24.3002 88.7406 24.1272 88.4151C24.3556 88.1375 24.6116 87.8335 24.8607 87.5289C25.2828 87.0235 25.6911 86.5243 25.9471 86.1995C26.3277 85.7287 27.3311 84.4894 28.722 85.071C29.0057 85.1887 29.2549 85.3548 29.4832 85.5002C30.0437 85.8741 30.279 85.9849 30.6734 85.7703C31.1094 85.5349 31.3931 85.071 31.6907 84.5863C31.8498 84.3294 32.009 84.0809 32.182 83.8524C32.9362 82.8692 34.0988 82.6061 35.0676 83.1877C35.552 83.4785 35.9672 83.8455 36.3547 84.2186C36.4377 84.3017 36.5208 84.3786 36.5969 84.4547C36.7007 84.5586 37.0467 84.9048 37.3927 85.2371" fill="#4169E1"/>
<path opacity="0.4" d="M33.4828 76.4645H27.4971C25.1513 76.4645 23.5804 78.1055 23.5804 80.5489V86.1924C23.5804 87.0434 23.7742 87.7987 24.1271 88.415C24.3555 88.1373 24.6115 87.8334 24.8606 87.528C25.2827 87.0233 25.691 86.5241 25.9471 86.1993C26.3276 85.7285 27.331 84.4892 28.7219 85.0708C29.0057 85.1885 29.2548 85.3547 29.4831 85.5C30.0436 85.8739 30.2789 85.9847 30.6734 85.7694C31.1093 85.5347 31.393 85.0708 31.6906 84.5854C31.8497 84.3292 32.0089 84.0807 32.1819 83.8522C32.9362 82.869 34.0987 82.6059 35.0675 83.1875C35.5519 83.4783 35.9671 83.8453 36.3546 84.2185C36.4376 84.3015 36.5207 84.3784 36.5968 84.4546C36.7006 84.5577 37.0466 84.9039 37.3926 85.2369V80.5489C37.3926 78.1055 35.8218 76.4645 33.4828 76.4645" fill="#4169E1"/>
<path d="M30.1101 81.1585C30.1101 82.1313 29.2998 82.9413 28.3275 82.9413C27.356 82.9413 26.5457 82.1313 26.5457 81.1585C26.5457 80.1864 27.356 79.3756 28.3275 79.3756C29.2998 79.3756 30.1101 80.1864 30.1101 81.1585" fill="#4169E1"/>
<path d="M37.3927 101.811V102.767C37.3927 102.926 37.3857 103.085 37.3719 103.244C37.1781 105.426 35.6627 106.851 33.476 106.851H27.4972C26.39 106.851 25.4558 106.492 24.7846 105.84C24.5216 105.599 24.3002 105.315 24.1272 104.989C24.3556 104.712 24.6116 104.408 24.8607 104.103C25.2828 103.598 25.6911 103.099 25.9471 102.774C26.3277 102.303 27.3311 101.064 28.722 101.645C29.0057 101.763 29.2549 101.929 29.4832 102.075C30.0437 102.448 30.279 102.559 30.6734 102.345C31.1094 102.109 31.3931 101.645 31.6907 101.161C31.8498 100.904 32.009 100.655 32.182 100.427C32.9362 99.4435 34.0988 99.1804 35.0676 99.762C35.552 100.053 35.9672 100.42 36.3547 100.793C36.4377 100.876 36.5208 100.953 36.5969 101.029C36.7007 101.133 37.0467 101.479 37.3927 101.811" fill="#4169E1"/>
<path opacity="0.4" d="M33.4828 93.0394H27.4971C25.1513 93.0394 23.5804 94.6804 23.5804 97.1238V102.767C23.5804 103.618 23.7742 104.374 24.1271 104.99C24.3555 104.712 24.6115 104.408 24.8606 104.103C25.2827 103.598 25.691 103.099 25.9471 102.774C26.3276 102.303 27.331 101.064 28.7219 101.646C29.0057 101.763 29.2548 101.93 29.4831 102.075C30.0436 102.449 30.2789 102.56 30.6734 102.344C31.1093 102.11 31.393 101.646 31.6906 101.16C31.8497 100.904 32.0089 100.656 32.1819 100.427C32.9362 99.4439 34.0987 99.1808 35.0675 99.7624C35.5519 100.053 35.9671 100.42 36.3546 100.793C36.4376 100.876 36.5207 100.953 36.5968 101.029C36.7006 101.133 37.0466 101.479 37.3926 101.812V97.1238C37.3926 94.6804 35.8218 93.0394 33.4828 93.0394" fill="#4169E1"/>
<path d="M30.1101 97.7331C30.1101 98.7059 29.2998 99.5159 28.3275 99.5159C27.356 99.5159 26.5457 98.7059 26.5457 97.7331C26.5457 96.761 27.356 95.9502 28.3275 95.9502C29.2998 95.9502 30.1101 96.761 30.1101 97.7331" fill="#4169E1"/>
<path d="M55.3484 85.2371V86.1926C55.3484 86.3512 55.3414 86.5111 55.3276 86.6697C55.1338 88.8513 53.6184 90.2769 51.4317 90.2769H45.4529C44.3457 90.2769 43.4115 89.9176 42.7403 89.2661C42.4773 89.0244 42.2559 88.7406 42.0829 88.4151C42.3112 88.1375 42.5673 87.8335 42.8164 87.5289C43.2385 87.0235 43.6468 86.5243 43.9028 86.1995C44.2834 85.7287 45.2868 84.4894 46.6777 85.071C46.9614 85.1887 47.2105 85.3548 47.4389 85.5002C47.9994 85.8741 48.2347 85.9849 48.6291 85.7703C49.0651 85.5349 49.3488 85.071 49.6463 84.5863C49.8055 84.3294 49.9647 84.0809 50.1377 83.8524C50.8919 82.8692 52.0545 82.6061 53.0233 83.1877C53.5077 83.4785 53.9229 83.8455 54.3104 84.2186C54.3934 84.3017 54.4764 84.3786 54.5526 84.4547C54.6564 84.5586 55.0024 84.9048 55.3484 85.2371" fill="#4169E1"/>
<path opacity="0.4" d="M51.4384 76.4645H45.4527C43.1068 76.4645 41.536 78.1055 41.536 80.5489V86.1924C41.536 87.0434 41.7298 87.7987 42.0827 88.415C42.311 88.1373 42.5671 87.8334 42.8162 87.528C43.2383 87.0233 43.6466 86.5241 43.9026 86.1993C44.2832 85.7285 45.2866 84.4892 46.6775 85.0708C46.9612 85.1885 47.2103 85.3547 47.4387 85.5C47.9992 85.8739 48.2345 85.9847 48.6289 85.7694C49.0649 85.5347 49.3486 85.0708 49.6461 84.5854C49.8053 84.3292 49.9645 84.0807 50.1375 83.8522C50.8917 82.869 52.0543 82.6059 53.0231 83.1875C53.5075 83.4783 53.9227 83.8453 54.3102 84.2185C54.3932 84.3015 54.4762 84.3784 54.5524 84.4546C54.6562 84.5577 55.0022 84.9039 55.3482 85.2369V80.5489C55.3482 78.1055 53.7773 76.4645 51.4384 76.4645" fill="#4169E1"/>
<path d="M48.0658 81.1585C48.0658 82.1313 47.2555 82.9413 46.2832 82.9413C45.3117 82.9413 44.5013 82.1313 44.5013 81.1585C44.5013 80.1864 45.3117 79.3756 46.2832 79.3756C47.2555 79.3756 48.0658 80.1864 48.0658 81.1585" fill="#4169E1"/>
<path d="M55.3484 101.811V102.767C55.3484 102.926 55.3414 103.085 55.3276 103.244C55.1338 105.426 53.6184 106.851 51.4317 106.851H45.4529C44.3457 106.851 43.4115 106.492 42.7403 105.84C42.4773 105.599 42.2559 105.315 42.0829 104.989C42.3112 104.712 42.5673 104.408 42.8164 104.103C43.2385 103.598 43.6468 103.099 43.9028 102.774C44.2834 102.303 45.2868 101.064 46.6777 101.645C46.9614 101.763 47.2105 101.929 47.4389 102.075C47.9994 102.448 48.2347 102.559 48.6291 102.345C49.0651 102.109 49.3488 101.645 49.6463 101.161C49.8055 100.904 49.9647 100.655 50.1377 100.427C50.8919 99.4435 52.0545 99.1804 53.0233 99.762C53.5077 100.053 53.9229 100.42 54.3104 100.793C54.3934 100.876 54.4764 100.953 54.5526 101.029C54.6564 101.133 55.0024 101.479 55.3484 101.811" fill="#4169E1"/>
<path opacity="0.4" d="M51.4384 93.0394H45.4527C43.1068 93.0394 41.536 94.6804 41.536 97.1238V102.767C41.536 103.618 41.7298 104.374 42.0827 104.99C42.311 104.712 42.5671 104.408 42.8162 104.103C43.2383 103.598 43.6466 103.099 43.9026 102.774C44.2832 102.303 45.2866 101.064 46.6775 101.646C46.9612 101.763 47.2103 101.93 47.4387 102.075C47.9992 102.449 48.2345 102.56 48.6289 102.344C49.0649 102.11 49.3486 101.646 49.6461 101.16C49.8053 100.904 49.9645 100.656 50.1375 100.427C50.8917 99.4439 52.0543 99.1808 53.0231 99.7624C53.5075 100.053 53.9227 100.42 54.3102 100.793C54.3932 100.876 54.4762 100.953 54.5524 101.029C54.6562 101.133 55.0022 101.479 55.3482 101.812V97.1238C55.3482 94.6804 53.7773 93.0394 51.4384 93.0394" fill="#4169E1"/>
<path d="M48.0658 97.7331C48.0658 98.7059 47.2555 99.5159 46.2832 99.5159C45.3117 99.5159 44.5013 98.7059 44.5013 97.7331C44.5013 96.761 45.3117 95.9502 46.2832 95.9502C47.2555 95.9502 48.0658 96.761 48.0658 97.7331" fill="#4169E1"/>
<rect x="13.3518" y="65.3153" width="52.6852" height="52.6852" rx="9.63914" stroke="#4169E1" stroke-width="0.721716"/>
</g>
<g filter="url(#filter2_d_901_6)">
<rect x="71.4498" y="64.9545" width="53.407" height="53.407" rx="10" fill="white"/>
<path d="M91.6065 81.6954V82.2681C91.6065 82.3632 91.6024 82.459 91.5941 82.5541C91.478 83.8618 90.5696 84.7163 89.2588 84.7163H85.6751C85.0114 84.7163 84.4514 84.5009 84.0491 84.1104C83.8915 83.9656 83.7587 83.7954 83.655 83.6004C83.7919 83.4339 83.9454 83.2517 84.0947 83.0691C84.3477 82.7662 84.5925 82.4669 84.7459 82.2723C84.9741 81.9901 85.5755 81.2472 86.4092 81.5958C86.5793 81.6664 86.7286 81.766 86.8655 81.8531C87.2015 82.0772 87.3425 82.1436 87.5789 82.015C87.8403 81.8739 88.0103 81.5958 88.1887 81.3053C88.2841 81.1513 88.3795 81.0023 88.4832 80.8654C88.9353 80.276 89.6322 80.1183 90.2129 80.4669C90.5032 80.6413 90.7521 80.8612 90.9844 81.0849C91.0341 81.1347 91.0839 81.1808 91.1295 81.2264C91.1918 81.2887 91.3992 81.4962 91.6065 81.6954" fill="#4169E1" fill-opacity="0.5"/>
<path opacity="0.4" d="M89.2635 76.4368H85.6756C84.2695 76.4368 83.3279 77.4204 83.3279 78.885V82.2679C83.3279 82.7779 83.444 83.2307 83.6556 83.6001C83.7924 83.4337 83.9459 83.2515 84.0952 83.0684C84.3483 82.7659 84.593 82.4667 84.7465 82.272C84.9746 81.9898 85.576 81.2469 86.4098 81.5955C86.5798 81.6661 86.7292 81.7657 86.866 81.8528C87.202 82.077 87.343 82.1434 87.5795 82.0143C87.8408 81.8736 88.0109 81.5955 88.1892 81.3046C88.2846 81.151 88.38 81.0021 88.4837 80.8651C88.9358 80.2758 89.6327 80.1181 90.2134 80.4667C90.5037 80.641 90.7526 80.8609 90.9849 81.0846C91.0347 81.1344 91.0844 81.1805 91.1301 81.2262C91.1923 81.288 91.3997 81.4955 91.6071 81.6951V78.885C91.6071 77.4204 90.6655 76.4368 89.2635 76.4368" fill="#4169E1" fill-opacity="0.5"/>
<path d="M87.2411 79.2504C87.2411 79.8335 86.7554 80.3191 86.1726 80.3191C85.5902 80.3191 85.1045 79.8335 85.1045 79.2504C85.1045 78.6677 85.5902 78.1817 86.1726 78.1817C86.7554 78.1817 87.2411 78.6677 87.2411 79.2504" fill="#4169E1" fill-opacity="0.5"/>
<path d="M102.37 81.6954V82.2681C102.37 82.3632 102.366 82.459 102.357 82.5541C102.241 83.8618 101.333 84.7163 100.022 84.7163H96.4382C95.7746 84.7163 95.2146 84.5009 94.8123 84.1104C94.6546 83.9656 94.5219 83.7954 94.4182 83.6004C94.5551 83.4339 94.7086 83.2517 94.8579 83.0691C95.1109 82.7662 95.3556 82.4669 95.5091 82.2723C95.7372 81.9901 96.3387 81.2472 97.1724 81.5958C97.3425 81.6664 97.4918 81.766 97.6287 81.8531C97.9647 82.0772 98.1057 82.1436 98.3421 82.015C98.6034 81.8739 98.7735 81.5958 98.9519 81.3053C99.0473 81.1513 99.1427 81.0023 99.2464 80.8654C99.6985 80.276 100.395 80.1183 100.976 80.4669C101.266 80.6413 101.515 80.8612 101.748 81.0849C101.797 81.1347 101.847 81.1808 101.893 81.2264C101.955 81.2887 102.162 81.4962 102.37 81.6954" fill="#4169E1" fill-opacity="0.5"/>
<path opacity="0.4" d="M100.026 76.4368H96.4385C95.0324 76.4368 94.0908 77.4204 94.0908 78.885V82.2679C94.0908 82.7779 94.207 83.2307 94.4185 83.6001C94.5554 83.4337 94.7089 83.2515 94.8582 83.0684C95.1112 82.7659 95.3559 82.4667 95.5094 82.272C95.7375 81.9898 96.339 81.2469 97.1727 81.5955C97.3428 81.6661 97.4921 81.7657 97.629 81.8528C97.965 82.077 98.106 82.1434 98.3424 82.0143C98.6037 81.8736 98.7738 81.5955 98.9522 81.3046C99.0476 81.151 99.143 81.0021 99.2467 80.8651C99.6988 80.2758 100.396 80.1181 100.976 80.4667C101.267 80.641 101.516 80.8609 101.748 81.0846C101.798 81.1344 101.847 81.1805 101.893 81.2262C101.955 81.288 102.163 81.4955 102.37 81.6951V78.885C102.37 77.4204 101.428 76.4368 100.026 76.4368" fill="#4169E1" fill-opacity="0.5"/>
<path d="M98.0044 79.2504C98.0044 79.8335 97.5187 80.3191 96.9359 80.3191C96.3535 80.3191 95.8678 79.8335 95.8678 79.2504C95.8678 78.6677 96.3535 78.1817 96.9359 78.1817C97.5187 78.1817 98.0044 78.6677 98.0044 79.2504" fill="#4169E1" fill-opacity="0.5"/>
<path d="M113.133 81.6954V82.2681C113.133 82.3632 113.129 82.459 113.12 82.5541C113.004 83.8618 112.096 84.7163 110.785 84.7163H107.201C106.538 84.7163 105.978 84.5009 105.575 84.1104C105.418 83.9656 105.285 83.7954 105.181 83.6004C105.318 83.4339 105.472 83.2517 105.621 83.0691C105.874 82.7662 106.119 82.4669 106.272 82.2723C106.5 81.9901 107.102 81.2472 107.935 81.5958C108.105 81.6664 108.255 81.766 108.392 81.8531C108.728 82.0772 108.869 82.1436 109.105 82.015C109.366 81.8739 109.536 81.5958 109.715 81.3053C109.81 81.1513 109.906 81.0023 110.009 80.8654C110.461 80.276 111.158 80.1183 111.739 80.4669C112.029 80.6413 112.278 80.8612 112.51 81.0849C112.56 81.1347 112.61 81.1808 112.656 81.2264C112.718 81.2887 112.925 81.4962 113.133 81.6954" fill="#4169E1" fill-opacity="0.5"/>
<path opacity="0.4" d="M110.789 76.4368H107.201C105.795 76.4368 104.854 77.4204 104.854 78.885V82.2679C104.854 82.7779 104.97 83.2307 105.181 83.6001C105.318 83.4337 105.472 83.2515 105.621 83.0684C105.874 82.7659 106.119 82.4667 106.272 82.272C106.5 81.9898 107.102 81.2469 107.935 81.5955C108.105 81.6661 108.255 81.7657 108.392 81.8528C108.728 82.077 108.869 82.1434 109.105 82.0143C109.366 81.8736 109.536 81.5955 109.715 81.3046C109.81 81.151 109.906 81.0021 110.009 80.8651C110.461 80.2758 111.158 80.1181 111.739 80.4667C112.029 80.641 112.278 80.8609 112.511 81.0846C112.56 81.1344 112.61 81.1805 112.656 81.2262C112.718 81.288 112.925 81.4955 113.133 81.6951V78.885C113.133 77.4204 112.191 76.4368 110.789 76.4368" fill="#4169E1" fill-opacity="0.5"/>
<path d="M108.767 79.2504C108.767 79.8335 108.281 80.3191 107.699 80.3191C107.116 80.3191 106.631 79.8335 106.631 79.2504C106.631 78.6677 107.116 78.1817 107.699 78.1817C108.281 78.1817 108.767 78.6677 108.767 79.2504" fill="#4169E1" fill-opacity="0.5"/>
<path d="M91.6065 92.7766V93.3493C91.6065 93.4444 91.6024 93.5402 91.5941 93.6353C91.478 94.943 90.5696 95.7975 89.2588 95.7975H85.6751C85.0114 95.7975 84.4514 95.5821 84.0491 95.1916C83.8915 95.0467 83.7587 94.8766 83.655 94.6815C83.7919 94.5151 83.9454 94.3329 84.0947 94.1503C84.3477 93.8473 84.5925 93.5481 84.7459 93.3535C84.9741 93.0712 85.5755 92.3284 86.4092 92.677C86.5793 92.7475 86.7286 92.8471 86.8655 92.9343C87.2015 93.1584 87.3425 93.2248 87.5789 93.0961C87.8403 92.955 88.0103 92.677 88.1887 92.3865C88.2841 92.2325 88.3795 92.0835 88.4832 91.9465C88.9353 91.3572 89.6322 91.1995 90.2129 91.5481C90.5032 91.7224 90.7521 91.9424 90.9844 92.1661C91.0341 92.2159 91.0839 92.262 91.1295 92.3076C91.1918 92.3699 91.3992 92.5774 91.6065 92.7766" fill="#4169E1" fill-opacity="0.5"/>
<path opacity="0.4" d="M89.2635 87.5182H85.6756C84.2695 87.5182 83.3279 88.5018 83.3279 89.9664V93.3492C83.3279 93.8593 83.444 94.3121 83.6556 94.6814C83.7924 94.515 83.9459 94.3328 84.0952 94.1498C84.3483 93.8473 84.593 93.548 84.7465 93.3534C84.9746 93.0712 85.576 92.3283 86.4098 92.6769C86.5798 92.7474 86.7292 92.8471 86.866 92.9342C87.202 93.1583 87.343 93.2247 87.5795 93.0956C87.8408 92.955 88.0109 92.6769 88.1892 92.386C88.2846 92.2324 88.38 92.0834 88.4837 91.9465C88.9358 91.3571 89.6327 91.1994 90.2134 91.548C90.5037 91.7223 90.7526 91.9423 90.9849 92.166C91.0347 92.2158 91.0844 92.2619 91.1301 92.3075C91.1923 92.3694 91.3997 92.5769 91.6071 92.7765V89.9664C91.6071 88.5018 90.6655 87.5182 89.2635 87.5182" fill="#4169E1" fill-opacity="0.5"/>
<path d="M87.2413 90.3317C87.2413 90.9148 86.7556 91.4004 86.1728 91.4004C85.5905 91.4004 85.1047 90.9148 85.1047 90.3317C85.1047 89.749 85.5905 89.263 86.1728 89.263C86.7556 89.263 87.2413 89.749 87.2413 90.3317" fill="#4169E1" fill-opacity="0.5"/>
<path d="M102.37 92.7766V93.3493C102.37 93.4444 102.366 93.5402 102.357 93.6353C102.241 94.943 101.333 95.7975 100.022 95.7975H96.4382C95.7746 95.7975 95.2146 95.5821 94.8123 95.1916C94.6546 95.0467 94.5219 94.8766 94.4182 94.6815C94.5551 94.5151 94.7086 94.3329 94.8579 94.1503C95.1109 93.8473 95.3556 93.5481 95.5091 93.3535C95.7372 93.0712 96.3387 92.3284 97.1724 92.677C97.3425 92.7475 97.4918 92.8471 97.6287 92.9343C97.9647 93.1584 98.1057 93.2248 98.3421 93.0961C98.6034 92.955 98.7735 92.677 98.9519 92.3865C99.0473 92.2325 99.1427 92.0835 99.2464 91.9465C99.6985 91.3572 100.395 91.1995 100.976 91.5481C101.266 91.7224 101.515 91.9424 101.748 92.1661C101.797 92.2159 101.847 92.262 101.893 92.3076C101.955 92.3699 102.162 92.5774 102.37 92.7766" fill="#4169E1" fill-opacity="0.5"/>
<path opacity="0.4" d="M100.026 87.5182H96.4385C95.0324 87.5182 94.0908 88.5018 94.0908 89.9664V93.3492C94.0908 93.8593 94.207 94.3121 94.4185 94.6814C94.5554 94.515 94.7089 94.3328 94.8582 94.1498C95.1112 93.8473 95.3559 93.548 95.5094 93.3534C95.7375 93.0712 96.339 92.3283 97.1727 92.6769C97.3428 92.7474 97.4921 92.8471 97.629 92.9342C97.965 93.1583 98.106 93.2247 98.3424 93.0956C98.6037 92.955 98.7738 92.6769 98.9522 92.386C99.0476 92.2324 99.143 92.0834 99.2467 91.9465C99.6988 91.3571 100.396 91.1994 100.976 91.548C101.267 91.7223 101.516 91.9423 101.748 92.166C101.798 92.2158 101.847 92.2619 101.893 92.3075C101.955 92.3694 102.163 92.5769 102.37 92.7765V89.9664C102.37 88.5018 101.428 87.5182 100.026 87.5182" fill="#4169E1" fill-opacity="0.5"/>
<path d="M98.0044 90.3317C98.0044 90.9148 97.5187 91.4004 96.9359 91.4004C96.3535 91.4004 95.8678 90.9148 95.8678 90.3317C95.8678 89.749 96.3535 89.263 96.9359 89.263C97.5187 89.263 98.0044 89.749 98.0044 90.3317" fill="#4169E1" fill-opacity="0.5"/>
<path d="M113.133 92.7766V93.3493C113.133 93.4444 113.129 93.5402 113.12 93.6353C113.004 94.943 112.096 95.7975 110.785 95.7975H107.201C106.538 95.7975 105.978 95.5821 105.575 95.1916C105.418 95.0467 105.285 94.8766 105.181 94.6815C105.318 94.5151 105.472 94.3329 105.621 94.1503C105.874 93.8473 106.119 93.5481 106.272 93.3535C106.5 93.0712 107.102 92.3284 107.935 92.677C108.105 92.7475 108.255 92.8471 108.392 92.9343C108.728 93.1584 108.869 93.2248 109.105 93.0961C109.366 92.955 109.536 92.677 109.715 92.3865C109.81 92.2325 109.906 92.0835 110.009 91.9465C110.461 91.3572 111.158 91.1995 111.739 91.5481C112.029 91.7224 112.278 91.9424 112.51 92.1661C112.56 92.2159 112.61 92.262 112.656 92.3076C112.718 92.3699 112.925 92.5774 113.133 92.7766" fill="#4169E1" fill-opacity="0.5"/>
<path opacity="0.4" d="M110.789 87.5182H107.201C105.795 87.5182 104.854 88.5018 104.854 89.9664V93.3492C104.854 93.8593 104.97 94.3121 105.181 94.6814C105.318 94.515 105.472 94.3328 105.621 94.1498C105.874 93.8473 106.119 93.548 106.272 93.3534C106.5 93.0712 107.102 92.3283 107.935 92.6769C108.105 92.7474 108.255 92.8471 108.392 92.9342C108.728 93.1583 108.869 93.2247 109.105 93.0956C109.366 92.955 109.536 92.6769 109.715 92.386C109.81 92.2324 109.906 92.0834 110.009 91.9465C110.461 91.3571 111.158 91.1994 111.739 91.548C112.029 91.7223 112.278 91.9423 112.511 92.166C112.56 92.2158 112.61 92.2619 112.656 92.3075C112.718 92.3694 112.925 92.5769 113.133 92.7765V89.9664C113.133 88.5018 112.191 87.5182 110.789 87.5182" fill="#4169E1" fill-opacity="0.5"/>
<path d="M108.767 90.3317C108.767 90.9148 108.281 91.4004 107.699 91.4004C107.116 91.4004 106.631 90.9148 106.631 90.3317C106.631 89.749 107.116 89.263 107.699 89.263C108.281 89.263 108.767 89.749 108.767 90.3317" fill="#4169E1" fill-opacity="0.5"/>
<path d="M91.6065 103.858V104.431C91.6065 104.526 91.6024 104.622 91.5941 104.717C91.478 106.024 90.5696 106.879 89.2588 106.879H85.6751C85.0114 106.879 84.4514 106.663 84.0491 106.273C83.8915 106.128 83.7587 105.958 83.655 105.763C83.7919 105.596 83.9454 105.414 84.0947 105.232C84.3477 104.929 84.5925 104.629 84.7459 104.435C84.9741 104.153 85.5755 103.41 86.4092 103.758C86.5793 103.829 86.7286 103.928 86.8655 104.016C87.2015 104.24 87.3425 104.306 87.5789 104.177C87.8403 104.036 88.0103 103.758 88.1887 103.468C88.2841 103.314 88.3795 103.165 88.4832 103.028C88.9353 102.439 89.6322 102.281 90.2129 102.629C90.5032 102.804 90.7521 103.024 90.9844 103.247C91.0341 103.297 91.0839 103.343 91.1295 103.389C91.1918 103.451 91.3992 103.659 91.6065 103.858" fill="#4169E1" fill-opacity="0.5"/>
<path opacity="0.4" d="M89.2635 98.5994H85.6756C84.2695 98.5994 83.3279 99.583 83.3279 101.048V104.43C83.3279 104.94 83.444 105.393 83.6556 105.763C83.7924 105.596 83.9459 105.414 84.0952 105.231C84.3483 104.928 84.593 104.629 84.7465 104.435C84.9746 104.152 85.576 103.409 86.4098 103.758C86.5798 103.829 86.7292 103.928 86.866 104.015C87.202 104.239 87.343 104.306 87.5795 104.177C87.8408 104.036 88.0109 103.758 88.1892 103.467C88.2846 103.314 88.38 103.165 88.4837 103.028C88.9358 102.438 89.6327 102.281 90.2134 102.629C90.5037 102.804 90.7526 103.023 90.9849 103.247C91.0347 103.297 91.0844 103.343 91.1301 103.389C91.1923 103.451 91.3997 103.658 91.6071 103.858V101.048C91.6071 99.583 90.6655 98.5994 89.2635 98.5994" fill="#4169E1" fill-opacity="0.5"/>
<path d="M87.2413 101.413C87.2413 101.996 86.7556 102.482 86.1728 102.482C85.5905 102.482 85.1047 101.996 85.1047 101.413C85.1047 100.83 85.5905 100.344 86.1728 100.344C86.7556 100.344 87.2413 100.83 87.2413 101.413" fill="#4169E1" fill-opacity="0.5"/>
<path d="M102.37 103.858V104.431C102.37 104.526 102.366 104.621 102.357 104.716C102.241 106.024 101.333 106.879 100.022 106.879H96.4382C95.7746 106.879 95.2146 106.663 94.8123 106.273C94.6546 106.128 94.5219 105.958 94.4182 105.763C94.5551 105.596 94.7086 105.414 94.8579 105.232C95.1109 104.929 95.3556 104.629 95.5091 104.435C95.7372 104.152 96.3387 103.41 97.1724 103.758C97.3425 103.829 97.4918 103.928 97.6287 104.016C97.9647 104.24 98.1057 104.306 98.3421 104.177C98.6034 104.036 98.7735 103.758 98.9519 103.468C99.0473 103.314 99.1427 103.165 99.2464 103.028C99.6985 102.438 100.395 102.281 100.976 102.629C101.266 102.804 101.515 103.024 101.748 103.247C101.797 103.297 101.847 103.343 101.893 103.389C101.955 103.451 102.162 103.659 102.37 103.858" fill="#4169E1" fill-opacity="0.5"/>
<path opacity="0.4" d="M100.026 98.5993H96.4385C95.0324 98.5993 94.0908 99.5829 94.0908 101.048V104.43C94.0908 104.94 94.207 105.393 94.4185 105.763C94.5554 105.596 94.7089 105.414 94.8582 105.231C95.1112 104.928 95.3559 104.629 95.5094 104.434C95.7375 104.152 96.339 103.409 97.1727 103.758C97.3428 103.829 97.4921 103.928 97.629 104.015C97.965 104.239 98.106 104.306 98.3424 104.177C98.6037 104.036 98.7738 103.758 98.9522 103.467C99.0476 103.314 99.143 103.165 99.2467 103.028C99.6988 102.438 100.396 102.281 100.976 102.629C101.267 102.803 101.516 103.023 101.748 103.247C101.798 103.297 101.847 103.343 101.893 103.389C101.955 103.45 102.163 103.658 102.37 103.858V101.048C102.37 99.5829 101.428 98.5993 100.026 98.5993" fill="#4169E1" fill-opacity="0.5"/>
<path d="M98.0044 101.413C98.0044 101.996 97.5187 102.482 96.9359 102.482C96.3535 102.482 95.8678 101.996 95.8678 101.413C95.8678 100.83 96.3535 100.344 96.9359 100.344C97.5187 100.344 98.0044 100.83 98.0044 101.413" fill="#4169E1" fill-opacity="0.5"/>
<path d="M113.133 103.858V104.431C113.133 104.526 113.129 104.621 113.12 104.716C113.004 106.024 112.096 106.879 110.785 106.879H107.201C106.538 106.879 105.978 106.663 105.575 106.273C105.418 106.128 105.285 105.958 105.181 105.763C105.318 105.596 105.472 105.414 105.621 105.232C105.874 104.929 106.119 104.629 106.272 104.435C106.5 104.152 107.102 103.41 107.935 103.758C108.105 103.829 108.255 103.928 108.392 104.016C108.728 104.24 108.869 104.306 109.105 104.177C109.366 104.036 109.536 103.758 109.715 103.468C109.81 103.314 109.906 103.165 110.009 103.028C110.461 102.438 111.158 102.281 111.739 102.629C112.029 102.804 112.278 103.024 112.51 103.247C112.56 103.297 112.61 103.343 112.656 103.389C112.718 103.451 112.925 103.659 113.133 103.858" fill="#4169E1" fill-opacity="0.5"/>
<path opacity="0.4" d="M110.789 98.5993H107.201C105.795 98.5993 104.854 99.5829 104.854 101.048V104.43C104.854 104.94 104.97 105.393 105.181 105.763C105.318 105.596 105.472 105.414 105.621 105.231C105.874 104.928 106.119 104.629 106.272 104.434C106.5 104.152 107.102 103.409 107.935 103.758C108.105 103.829 108.255 103.928 108.392 104.015C108.728 104.239 108.869 104.306 109.105 104.177C109.366 104.036 109.536 103.758 109.715 103.467C109.81 103.314 109.906 103.165 110.009 103.028C110.461 102.438 111.158 102.281 111.739 102.629C112.029 102.803 112.278 103.023 112.511 103.247C112.56 103.297 112.61 103.343 112.656 103.389C112.718 103.45 112.925 103.658 113.133 103.858V101.048C113.133 99.5829 112.191 98.5993 110.789 98.5993" fill="#4169E1" fill-opacity="0.5"/>
<path d="M108.767 101.413C108.767 101.996 108.281 102.482 107.699 102.482C107.116 102.482 106.631 101.996 106.631 101.413C106.631 100.83 107.116 100.344 107.699 100.344C108.281 100.344 108.767 100.83 108.767 101.413" fill="#4169E1" fill-opacity="0.5"/>
<rect x="71.8107" y="65.3153" width="52.6852" height="52.6852" rx="9.63914" stroke="#F0F2F8" stroke-width="0.721716"/>
</g>
<g filter="url(#filter3_d_901_6)">
<rect x="129.909" y="64.9545" width="53.407" height="53.407" rx="10" fill="white"/>
<rect x="140.735" y="80.1478" width="14.2794" height="2.76243" rx="0.92081" fill="#4169E1" fill-opacity="0.4"/>
<rect x="140.735" y="87.054" width="14.2794" height="2.76243" rx="0.92081" fill="#4169E1" fill-opacity="0.4"/>
<rect x="140.735" y="93.9602" width="14.2794" height="2.76243" rx="0.92081" fill="#4169E1" fill-opacity="0.4"/>
<rect x="140.735" y="100.866" width="14.2794" height="2.76243" rx="0.92081" fill="#4169E1" fill-opacity="0.4"/>
<rect x="158.584" y="80.1477" width="14.2794" height="2.76243" rx="0.92081" fill="#4169E1" fill-opacity="0.4"/>
<rect x="158.584" y="87.0539" width="14.2794" height="2.76243" rx="0.92081" fill="#4169E1" fill-opacity="0.4"/>
<rect x="158.584" y="93.9601" width="14.2794" height="2.76243" rx="0.92081" fill="#4169E1" fill-opacity="0.4"/>
<rect x="158.584" y="100.866" width="14.2794" height="2.76243" rx="0.92081" fill="#4169E1" fill-opacity="0.4"/>
<rect x="130.27" y="65.3153" width="52.6852" height="52.6852" rx="9.63914" stroke="#F0F2F8" stroke-width="0.721716"/>
</g>
<g filter="url(#filter4_d_901_6)">
<rect x="71.4498" y="124.135" width="53.407" height="53.407" rx="10" fill="white"/>
<path d="M97.2323 151.485V152.759C97.2323 152.971 97.2231 153.184 97.2047 153.395C96.9463 156.304 94.9257 158.205 92.0101 158.205H84.0384C82.5621 158.205 81.3165 157.726 80.4216 156.857C80.071 156.535 79.7757 156.157 79.545 155.723C79.8495 155.353 80.1909 154.947 80.5231 154.541C81.0859 153.867 81.6302 153.202 81.9716 152.769C82.4791 152.141 83.8169 150.488 85.6715 151.264C86.0498 151.421 86.3819 151.642 86.6864 151.836C87.4337 152.335 87.7474 152.482 88.2734 152.196C88.8546 151.882 89.2329 151.264 89.6297 150.618C89.8419 150.275 90.0541 149.944 90.2847 149.639C91.2904 148.328 92.8405 147.977 94.1322 148.753C94.7781 149.141 95.3317 149.63 95.8484 150.127C95.9591 150.238 96.0698 150.341 96.1713 150.442C96.3097 150.581 96.771 151.042 97.2323 151.485" fill="#4169E1" fill-opacity="0.5"/>
<path opacity="0.4" d="M92.0195 139.789H84.0385C80.9107 139.789 78.8163 141.977 78.8163 145.235V152.76C78.8163 153.894 79.0746 154.901 79.5452 155.723C79.8497 155.353 80.191 154.947 80.5232 154.54C81.086 153.867 81.6304 153.202 81.9718 152.769C82.4792 152.141 83.8171 150.489 85.6716 151.264C86.0499 151.421 86.3821 151.643 86.6865 151.836C87.4339 152.335 87.7476 152.483 88.2735 152.196C88.8548 151.883 89.2331 151.264 89.6298 150.617C89.842 150.275 90.0542 149.944 90.2849 149.639C91.2906 148.328 92.8406 147.978 94.1324 148.753C94.7782 149.141 95.3318 149.63 95.8485 150.128C95.9592 150.238 96.0699 150.341 96.1714 150.442C96.3098 150.58 96.7712 151.042 97.2325 151.486V145.235C97.2325 141.977 95.1381 139.789 92.0195 139.789" fill="#4169E1" fill-opacity="0.5"/>
<path d="M87.5224 146.047C87.5224 147.344 86.4419 148.424 85.1456 148.424C83.8502 148.424 82.7698 147.344 82.7698 146.047C82.7698 144.751 83.8502 143.67 85.1456 143.67C86.4419 143.67 87.5224 144.751 87.5224 146.047" fill="#4169E1" fill-opacity="0.5"/>
<rect x="100.455" y="139.789" width="18.4162" height="2.76243" rx="0.92081" fill="#4169E1" fill-opacity="0.4"/>
<rect x="100.455" y="146.695" width="18.4162" height="2.76243" rx="0.92081" fill="#4169E1" fill-opacity="0.4"/>
<rect x="100.455" y="153.601" width="18.4162" height="2.76243" rx="0.92081" fill="#4169E1" fill-opacity="0.4"/>
<rect x="100.455" y="160.507" width="18.4162" height="2.76243" rx="0.92081" fill="#4169E1" fill-opacity="0.4"/>
<rect x="78.8163" y="160.968" width="18.4162" height="2.76243" rx="0.92081" fill="#4169E1" fill-opacity="0.4"/>
<rect x="71.8107" y="124.496" width="52.6852" height="52.6852" rx="9.63914" stroke="#F0F2F8" stroke-width="0.721716"/>
</g>
<g filter="url(#filter5_d_901_6)">
<rect x="12.991" y="124.135" width="53.407" height="53.407" rx="10" fill="white"/>
<path d="M37.3927 160.993V161.948C37.3927 162.107 37.3857 162.266 37.3719 162.425C37.1781 164.607 35.6627 166.032 33.476 166.032H27.4972C26.39 166.032 25.4558 165.673 24.7846 165.021C24.5216 164.78 24.3002 164.496 24.1272 164.171C24.3556 163.893 24.6116 163.589 24.8607 163.284C25.2828 162.779 25.6911 162.28 25.9471 161.955C26.3277 161.484 27.3311 160.245 28.722 160.826C29.0057 160.944 29.2549 161.11 29.4832 161.256C30.0437 161.629 30.279 161.74 30.6734 161.526C31.1094 161.29 31.3931 160.826 31.6907 160.342C31.8498 160.085 32.009 159.836 32.182 159.608C32.9362 158.625 34.0988 158.361 35.0676 158.943C35.552 159.234 35.9672 159.601 36.3547 159.974C36.4377 160.057 36.5208 160.134 36.5969 160.21C36.7007 160.314 37.0467 160.66 37.3927 160.993" fill="#4169E1" fill-opacity="0.5"/>
<path opacity="0.4" d="M33.4828 152.22H27.4971C25.1513 152.22 23.5804 153.861 23.5804 156.304V161.948C23.5804 162.799 23.7742 163.554 24.1271 164.17C24.3555 163.893 24.6115 163.589 24.8606 163.283C25.2827 162.779 25.691 162.279 25.9471 161.955C26.3276 161.484 27.331 160.244 28.7219 160.826C29.0057 160.944 29.2548 161.11 29.4831 161.255C30.0436 161.629 30.2789 161.74 30.6734 161.525C31.1093 161.29 31.393 160.826 31.6906 160.341C31.8497 160.085 32.0089 159.836 32.1819 159.608C32.9362 158.624 34.0987 158.361 35.0675 158.943C35.5519 159.234 35.9671 159.601 36.3546 159.974C36.4376 160.057 36.5207 160.134 36.5968 160.21C36.7006 160.313 37.0466 160.659 37.3926 160.992V156.304C37.3926 153.861 35.8218 152.22 33.4828 152.22" fill="#4169E1" fill-opacity="0.5"/>
<path d="M30.1101 156.914C30.1101 157.887 29.2998 158.697 28.3275 158.697C27.356 158.697 26.5457 157.887 26.5457 156.914C26.5457 155.942 27.356 155.131 28.3275 155.131C29.2998 155.131 30.1101 155.942 30.1101 156.914" fill="#4169E1" fill-opacity="0.5"/>
<path d="M55.3486 160.993V161.948C55.3486 162.107 55.3417 162.266 55.3278 162.425C55.1341 164.607 53.6186 166.032 51.4319 166.032H45.4531C44.3459 166.032 43.4118 165.673 42.7405 165.021C42.4776 164.78 42.2561 164.496 42.0831 164.171C42.3115 163.893 42.5675 163.589 42.8166 163.284C43.2388 162.779 43.647 162.28 43.9031 161.955C44.2837 161.484 45.287 160.245 46.678 160.826C46.9617 160.944 47.2108 161.11 47.4391 161.256C47.9997 161.629 48.2349 161.74 48.6294 161.526C49.0653 161.29 49.349 160.826 49.6466 160.342C49.8058 160.085 49.9649 159.836 50.1379 159.608C50.8922 158.625 52.0547 158.361 53.0235 158.943C53.5079 159.234 53.9231 159.601 54.3106 159.974C54.3937 160.057 54.4767 160.134 54.5528 160.21C54.6566 160.314 55.0026 160.66 55.3486 160.993" fill="#4169E1" fill-opacity="0.5"/>
<path opacity="0.4" d="M51.4387 152.22H45.4529C43.1071 152.22 41.5363 153.861 41.5363 156.304V161.948C41.5363 162.799 41.73 163.554 42.0829 164.17C42.3113 163.893 42.5673 163.589 42.8164 163.283C43.2386 162.779 43.6468 162.279 43.9029 161.955C44.2835 161.484 45.2868 160.244 46.6778 160.826C46.9615 160.944 47.2106 161.11 47.4389 161.255C47.9995 161.629 48.2347 161.74 48.6292 161.525C49.0651 161.29 49.3488 160.826 49.6464 160.341C49.8056 160.085 49.9647 159.836 50.1377 159.608C50.892 158.624 52.0545 158.361 53.0233 158.943C53.5077 159.234 53.9229 159.601 54.3104 159.974C54.3935 160.057 54.4765 160.134 54.5526 160.21C54.6564 160.313 55.0024 160.659 55.3484 160.992V156.304C55.3484 153.861 53.7776 152.22 51.4387 152.22" fill="#4169E1" fill-opacity="0.5"/>
<path d="M48.066 156.914C48.066 157.887 47.2557 158.697 46.2835 158.697C45.3119 158.697 44.5016 157.887 44.5016 156.914C44.5016 155.942 45.3119 155.131 46.2835 155.131C47.2557 155.131 48.066 155.942 48.066 156.914" fill="#4169E1" fill-opacity="0.5"/>
<rect opacity="0.4" x="23.5803" y="133.804" width="31.7679" height="13.8121" rx="3.22283" fill="#4169E1" fill-opacity="0.5"/>
<path fill-rule="evenodd" clip-rule="evenodd" d="M53.6408 147.238C53.1891 147.48 52.6733 147.616 52.1255 147.616H26.9089C27.1342 147.402 27.3651 147.183 27.5927 146.963C28.3121 146.283 29.008 145.611 29.4444 145.174C30.093 144.541 31.8032 142.873 34.1737 143.656C34.6109 143.799 34.9999 143.995 35.3581 144.176C35.3961 144.195 35.4338 144.214 35.4711 144.233C36.4264 144.736 36.8274 144.885 37.4996 144.597C38.2399 144.281 38.7226 143.66 39.2277 143.011L39.2334 143.003C39.5046 142.658 39.7759 142.323 40.0707 142.016C41.3563 140.693 43.3377 140.339 44.9888 141.121C45.8144 141.513 46.522 142.006 47.1825 142.509C47.2548 142.566 47.3271 142.621 47.3979 142.674C47.4656 142.726 47.5318 142.776 47.5953 142.826C47.7722 142.966 48.3619 143.432 48.9516 143.879L53.6408 147.238Z" fill="#4169E1" fill-opacity="0.4"/>
<path d="M34.3197 138.483C34.3197 139.78 33.2393 140.86 31.943 140.86C30.6476 140.86 29.5671 139.78 29.5671 138.483C29.5671 137.187 30.6476 136.106 31.943 136.106C33.2393 136.106 34.3197 137.187 34.3197 138.483" fill="#4169E1" fill-opacity="0.49"/>
<rect x="13.3518" y="124.496" width="52.6852" height="52.6852" rx="9.63914" stroke="#F0F2F8" stroke-width="0.721716"/>
</g>
<g filter="url(#filter6_d_901_6)">
<rect x="129.909" y="124.135" width="53.407" height="53.407" rx="10" fill="white"/>
<rect x="147.405" y="160.968" width="18.4162" height="2.76243" rx="0.92081" fill="#4169E1" fill-opacity="0.4"/>
<circle cx="156.613" cy="147.616" r="10.1289" fill="#4169E1" fill-opacity="0.2"/>
<path fill-rule="evenodd" clip-rule="evenodd" d="M147.918 152.815C148.39 152.249 148.817 151.729 149.118 151.351C149.766 150.559 151.472 148.476 153.838 149.454C154.274 149.633 154.662 149.878 155.019 150.104C155.057 150.128 155.095 150.152 155.132 150.175C156.085 150.804 156.485 150.99 157.156 150.629C157.895 150.235 158.377 149.459 158.881 148.648L158.886 148.639C159.157 148.207 159.427 147.789 159.722 147.405C161.004 145.752 162.982 145.31 164.629 146.288C165.419 146.756 166.101 147.343 166.736 147.943C166.563 153.386 162.097 157.745 156.613 157.745C152.919 157.745 149.688 155.768 147.918 152.815Z" fill="#4169E1" fill-opacity="0.4"/>
<path d="M156.571 144.666C156.571 145.963 155.49 147.043 154.194 147.043C152.899 147.043 151.818 145.963 151.818 144.666C151.818 143.37 152.899 142.289 154.194 142.289C155.49 142.289 156.571 143.37 156.571 144.666" fill="#4169E1" fill-opacity="0.4"/>
<rect x="130.27" y="124.496" width="52.6852" height="52.6852" rx="9.63914" stroke="#F0F2F8" stroke-width="0.721716"/>
</g>
<g filter="url(#filter7_d_901_6)">
<rect x="12.991" y="182.594" width="53.407" height="53.407" rx="10" fill="white"/>
<rect opacity="0.4" x="19.4863" y="200.637" width="39.9532" height="17.371" rx="3.22283" fill="#4169E1" fill-opacity="0.5"/>
<path fill-rule="evenodd" clip-rule="evenodd" d="M57.552 217.719C57.1452 217.905 56.693 218.008 56.2166 218.008H23.6724C23.9557 217.739 24.2462 217.463 24.5324 217.187C25.4372 216.331 26.3123 215.486 26.8612 214.937C27.677 214.14 29.8277 212.043 32.8091 213.027C33.3589 213.207 33.8481 213.454 34.2987 213.682C34.3464 213.706 34.3938 213.73 34.4407 213.753C35.6422 214.386 36.1465 214.574 36.992 214.21C37.923 213.813 38.5301 213.033 39.1653 212.216L39.1724 212.207C39.5135 211.772 39.8547 211.351 40.2255 210.965C41.8423 209.301 44.3342 208.855 46.4108 209.84C47.4491 210.332 48.3391 210.953 49.1697 211.584C49.2606 211.656 49.3516 211.725 49.4405 211.793C49.5257 211.858 49.609 211.921 49.6888 211.984L49.6889 211.984C49.9114 212.16 50.653 212.746 51.3946 213.308L57.552 217.719Z" fill="#4169E1" fill-opacity="0.4"/>
<path d="M32.9928 206.522C32.9928 208.153 31.634 209.511 30.0036 209.511C28.3744 209.511 27.0156 208.153 27.0156 206.522C27.0156 204.892 28.3744 203.532 30.0036 203.532C31.634 203.532 32.9928 204.892 32.9928 206.522" fill="#4169E1" fill-opacity="0.49"/>
<rect x="13.3518" y="182.955" width="52.6852" height="52.6852" rx="9.63914" stroke="#F0F2F8" stroke-width="0.721716"/>
</g>
<g filter="url(#filter8_d_901_6)">
<rect x="71.4498" y="182.594" width="53.407" height="53.407" rx="10" fill="white"/>
<path d="M99.3477 212.322V213.82C99.3477 214.069 99.3369 214.319 99.3152 214.568C99.0115 217.988 96.6359 220.223 93.2081 220.223H83.8359C82.1003 220.223 80.6359 219.659 79.5837 218.638C79.1715 218.259 78.8244 217.814 78.5532 217.304C78.9112 216.869 79.3125 216.392 79.7031 215.915C80.3647 215.123 81.0047 214.34 81.4061 213.831C82.0027 213.093 83.5756 211.15 85.7559 212.062C86.2007 212.246 86.5912 212.507 86.9491 212.735C87.8278 213.321 88.1966 213.495 88.8149 213.158C89.4983 212.789 89.943 212.062 90.4095 211.302C90.659 210.9 90.9084 210.51 91.1796 210.152C92.362 208.611 94.1844 208.198 95.703 209.11C96.4623 209.566 97.1132 210.141 97.7206 210.726C97.8508 210.856 97.981 210.977 98.1003 211.096C98.263 211.259 98.8054 211.801 99.3477 212.322" fill="#4169E1" fill-opacity="0.5"/>
<path opacity="0.4" d="M93.2193 198.572H83.8363C80.159 198.572 77.6967 201.144 77.6967 204.974V213.821C77.6967 215.155 78.0004 216.339 78.5536 217.305C78.9116 216.87 79.3129 216.393 79.7034 215.914C80.3651 215.123 81.0051 214.341 81.4065 213.832C82.0031 213.094 83.576 211.151 85.7563 212.063C86.201 212.247 86.5915 212.508 86.9495 212.735C87.8282 213.322 88.197 213.495 88.8153 213.158C89.4987 212.79 89.9434 212.063 90.4098 211.302C90.6593 210.9 90.9088 210.51 91.18 210.152C92.3624 208.611 94.1847 208.199 95.7034 209.11C96.4627 209.566 97.1136 210.141 97.721 210.726C97.8512 210.857 97.9814 210.977 98.1007 211.097C98.2634 211.258 98.8058 211.801 99.3481 212.323V204.974C99.3481 201.144 96.8858 198.572 93.2193 198.572" fill="#4169E1" fill-opacity="0.5"/>
<path d="M87.9316 205.929C87.9316 207.454 86.6614 208.724 85.1373 208.724C83.6144 208.724 82.3441 207.454 82.3441 205.929C82.3441 204.405 83.6144 203.135 85.1373 203.135C86.6614 203.135 87.9316 204.405 87.9316 205.929" fill="#4169E1" fill-opacity="0.5"/>
<rect x="102.484" y="201.359" width="15.8777" height="2.88686" rx="0.92081" fill="#4169E1" fill-opacity="0.4"/>
<rect x="102.484" y="207.854" width="15.8777" height="2.88686" rx="0.92081" fill="#4169E1" fill-opacity="0.4"/>
<rect x="102.484" y="215.071" width="15.8777" height="2.88686" rx="0.92081" fill="#4169E1" fill-opacity="0.4"/>
<rect x="71.8107" y="182.955" width="52.6852" height="52.6852" rx="9.63914" stroke="#F0F2F8" stroke-width="0.721716"/>
</g>
<g filter="url(#filter9_d_901_6)">
<rect x="129.909" y="182.594" width="53.407" height="53.407" rx="10" fill="white"/>
<path d="M176.821 212.322V213.82C176.821 214.069 176.81 214.319 176.788 214.568C176.485 217.988 174.109 220.223 170.681 220.223H161.309C159.573 220.223 158.109 219.659 157.057 218.638C156.645 218.259 156.297 217.814 156.026 217.304C156.384 216.869 156.786 216.392 157.176 215.915C157.838 215.123 158.478 214.34 158.879 213.831C159.476 213.093 161.049 211.15 163.229 212.062C163.674 212.246 164.064 212.507 164.422 212.735C165.301 213.321 165.67 213.495 166.288 213.158C166.971 212.789 167.416 212.062 167.882 211.302C168.132 210.9 168.381 210.51 168.653 210.152C169.835 208.611 171.657 208.198 173.176 209.11C173.935 209.566 174.586 210.141 175.194 210.726C175.324 210.856 175.454 210.977 175.573 211.096C175.736 211.259 176.278 211.801 176.821 212.322" fill="#4169E1" fill-opacity="0.5"/>
<path opacity="0.4" d="M170.692 198.572H161.309C157.631 198.572 155.169 201.144 155.169 204.974V213.821C155.169 215.155 155.473 216.339 156.026 217.305C156.384 216.87 156.785 216.393 157.176 215.914C157.838 215.123 158.478 214.341 158.879 213.832C159.475 213.094 161.048 211.151 163.229 212.063C163.673 212.247 164.064 212.508 164.422 212.735C165.301 213.322 165.669 213.495 166.288 213.158C166.971 212.79 167.416 212.063 167.882 211.302C168.132 210.9 168.381 210.51 168.652 210.152C169.835 208.611 171.657 208.199 173.176 209.11C173.935 209.566 174.586 210.141 175.193 210.726C175.324 210.857 175.454 210.977 175.573 211.097C175.736 211.258 176.278 211.801 176.821 212.323V204.974C176.821 201.144 174.358 198.572 170.692 198.572" fill="#4169E1" fill-opacity="0.5"/>
<path d="M165.404 205.929C165.404 207.454 164.134 208.724 162.61 208.724C161.087 208.724 159.817 207.454 159.817 205.929C159.817 204.405 161.087 203.135 162.61 203.135C164.134 203.135 165.404 204.405 165.404 205.929" fill="#4169E1" fill-opacity="0.5"/>
<rect width="15.8777" height="2.88686" rx="0.92081" transform="matrix(-1 0 0 1 152.034 201.359)" fill="#4169E1" fill-opacity="0.4"/>
<rect width="15.8777" height="2.88686" rx="0.92081" transform="matrix(-1 0 0 1 152.034 207.854)" fill="#4169E1" fill-opacity="0.4"/>
<rect width="15.8777" height="2.88686" rx="0.92081" transform="matrix(-1 0 0 1 152.034 215.071)" fill="#4169E1" fill-opacity="0.4"/>
<rect x="130.27" y="182.955" width="52.6852" height="52.6852" rx="9.63914" stroke="#F0F2F8" stroke-width="0.721716"/>
</g>
<g filter="url(#filter10_d_901_6)">
<rect x="71.4497" y="241.775" width="53.407" height="53.407" rx="10" fill="white"/>
<rect opacity="0.4" x="76.5017" y="259.096" width="43.3029" height="18.7646" rx="3.22283" fill="#4169E1" fill-opacity="0.5"/>
<path d="M83.7191 271.191V270.363H84.4842V267.141H83.7191V266.313H86.0773C86.7734 266.313 87.3044 266.426 87.6704 266.652C88.0365 266.879 88.2195 267.202 88.2195 267.621C88.2195 267.864 88.1565 268.08 88.0305 268.267C87.9105 268.455 87.7364 268.601 87.5084 268.706C87.7784 268.778 87.9915 268.913 88.1475 269.112C88.3095 269.305 88.3905 269.551 88.3905 269.849C88.3905 270.269 88.2375 270.597 87.9315 270.835C87.6314 271.072 87.1844 271.191 86.5904 271.191H83.7191ZM85.5193 268.375H86.4913C86.7014 268.375 86.8604 268.323 86.9684 268.218C87.0824 268.107 87.1394 267.955 87.1394 267.762C87.1394 267.348 86.8184 267.141 86.1763 267.141H85.5193V268.375ZM85.5193 270.363H86.4283C87.0164 270.363 87.3104 270.15 87.3104 269.725C87.3104 269.316 87.0344 269.112 86.4823 269.112H85.5193V270.363Z" fill="#4169E1" fill-opacity="0.4"/>
<path d="M92.709 270.992C92.505 271.103 92.283 271.188 92.043 271.249C91.8089 271.315 91.5869 271.348 91.3769 271.348C90.7649 271.348 90.3148 271.224 90.0268 270.976C89.7448 270.727 89.6038 270.341 89.6038 269.816V268.234H88.8927V267.489H90.6209V269.675C90.6209 269.974 90.6809 270.192 90.8009 270.33C90.9269 270.462 91.1309 270.528 91.4129 270.528C91.5509 270.528 91.7099 270.509 91.89 270.47C92.076 270.426 92.244 270.371 92.394 270.305V268.234H91.6829V267.489H93.4111V270.305L94.2121 270.562L93.9331 271.365L92.709 270.992Z" fill="#4169E1" fill-opacity="0.4"/>
<path d="M96.8292 271.348C96.3972 271.348 96.0462 271.23 95.7762 270.992C95.5121 270.755 95.3801 270.374 95.3801 269.849V268.234H94.6331V267.489H95.3801V266.785L96.3612 266.512V267.489H97.4593V268.234H96.3612V269.584C96.3612 269.899 96.4062 270.145 96.4962 270.321C96.5922 270.498 96.7482 270.586 96.9643 270.586C97.1323 270.586 97.3333 270.534 97.5673 270.429L97.7563 271.116C97.6183 271.177 97.4683 271.23 97.3063 271.274C97.1503 271.323 96.9913 271.348 96.8292 271.348Z" fill="#4169E1" fill-opacity="0.4"/>
<path d="M100.433 271.348C100.001 271.348 99.65 271.23 99.38 270.992C99.1159 270.755 98.9839 270.374 98.9839 269.849V268.234H98.2369V267.489H98.9839V266.785L99.965 266.512V267.489H101.063V268.234H99.965V269.584C99.965 269.899 100.01 270.145 100.1 270.321C100.196 270.498 100.352 270.586 100.568 270.586C100.736 270.586 100.937 270.534 101.171 270.429L101.36 271.116C101.222 271.177 101.072 271.23 100.91 271.274C100.754 271.323 100.595 271.348 100.433 271.348Z" fill="#4169E1" fill-opacity="0.4"/>
<path d="M103.827 267.34C104.499 267.34 105.021 267.517 105.393 267.87C105.771 268.223 105.96 268.715 105.96 269.344C105.96 269.974 105.771 270.465 105.393 270.818C105.021 271.172 104.499 271.348 103.827 271.348C103.173 271.348 102.66 271.172 102.288 270.818C101.922 270.465 101.739 269.974 101.739 269.344C101.739 268.715 101.922 268.223 102.288 267.87C102.66 267.517 103.173 267.34 103.827 267.34ZM103.836 268.093C103.476 268.093 103.203 268.201 103.017 268.416C102.837 268.632 102.747 268.941 102.747 269.344C102.747 269.753 102.837 270.065 103.017 270.28C103.203 270.49 103.476 270.595 103.836 270.595C104.208 270.595 104.487 270.49 104.673 270.28C104.859 270.065 104.952 269.753 104.952 269.344C104.952 268.941 104.859 268.632 104.673 268.416C104.487 268.201 104.208 268.093 103.836 268.093Z" fill="#4169E1" fill-opacity="0.4"/>
<path d="M106.565 271.191V270.446H107.33V268.425L106.466 268.151L106.727 267.398L107.978 267.795C108.206 267.652 108.44 267.541 108.68 267.464C108.92 267.381 109.205 267.34 109.535 267.34C110.081 267.34 110.48 267.486 110.732 267.779C110.99 268.066 111.119 268.433 111.119 268.88V270.446H111.866V271.191H109.733V270.446H110.111V269.005C110.111 268.739 110.045 268.532 109.913 268.383C109.787 268.229 109.583 268.151 109.301 268.151C109.121 268.151 108.944 268.179 108.77 268.234C108.602 268.289 108.458 268.356 108.338 268.433V270.446H108.707V271.191H106.565Z" fill="#4169E1" fill-opacity="0.4"/>
<rect x="71.8106" y="242.136" width="52.6852" height="52.6852" rx="9.63914" stroke="#F0F2F8" stroke-width="0.721716"/>
</g>
<g filter="url(#filter11_d_901_6)">
<rect x="12.991" y="241.775" width="53.407" height="53.407" rx="10" fill="white"/>
<circle cx="39.6947" cy="265.255" r="10.1289" fill="#4169E1" fill-opacity="0.2"/>
<path fill-rule="evenodd" clip-rule="evenodd" d="M31.0001 270.454C31.4724 269.888 31.8986 269.369 32.2005 268.99C32.8477 268.199 34.5541 266.116 36.9196 267.093C37.3558 267.272 37.7439 267.518 38.1014 267.744C38.1393 267.768 38.1768 267.791 38.2141 267.815C39.1673 268.443 39.5674 268.63 40.2382 268.269C40.9769 267.875 41.4586 267.099 41.9626 266.288L41.9682 266.279C42.2388 265.847 42.5095 265.429 42.8037 265.045C44.0865 263.392 46.0635 262.95 47.7111 263.927C48.5011 264.396 49.1828 264.983 49.8186 265.583C49.6456 271.026 45.1792 275.384 39.6949 275.384C36.0015 275.384 32.7698 273.408 31.0001 270.454Z" fill="#4169E1" fill-opacity="0.4"/>
<path d="M39.6526 262.306C39.6526 263.603 38.5722 264.683 37.2759 264.683C35.9805 264.683 34.9 263.603 34.9 262.306C34.9 261.01 35.9805 259.929 37.2759 259.929C38.5722 259.929 39.6526 261.01 39.6526 262.306" fill="#4169E1" fill-opacity="0.4"/>
<path d="M27.4252 276.833H31.0164V277.838H29.7809L29.7693 282.63H31.7555L32.1827 281.452L33.1412 281.775L32.4945 283.634H27.4252V282.63H28.6261L28.6377 277.838H27.4252V276.833Z" fill="#4169E1" fill-opacity="0.4"/>
<path d="M36.5089 278.369C37.3249 278.369 37.9715 278.611 38.4488 279.096C38.9261 279.581 39.1648 280.251 39.1648 281.106C39.1648 281.96 38.9261 282.63 38.4488 283.115C37.9715 283.592 37.3249 283.831 36.5089 283.831C35.7005 283.831 35.0616 283.592 34.592 283.115C34.1224 282.63 33.8876 281.96 33.8876 281.106C33.8876 280.251 34.1224 279.581 34.592 279.096C35.0616 278.611 35.7005 278.369 36.5089 278.369ZM36.5204 279.293C36.02 279.293 35.6428 279.45 35.3888 279.766C35.1424 280.074 35.0192 280.52 35.0192 281.106C35.0192 281.691 35.1424 282.141 35.3888 282.457C35.6428 282.765 36.02 282.919 36.5204 282.919C37.0208 282.919 37.398 282.765 37.6521 282.457C37.9061 282.141 38.0331 281.691 38.0331 281.106C38.0331 280.52 37.9061 280.074 37.6521 279.766C37.398 279.45 37.0208 279.293 36.5204 279.293Z" fill="#4169E1" fill-opacity="0.4"/>
<path d="M42.3985 282.295C42.3061 282.295 42.2176 282.291 42.1329 282.283V283.161H43.1029C43.7573 283.161 44.2461 283.292 44.5694 283.554C44.8928 283.808 45.0544 284.177 45.0544 284.662C45.0544 285.039 44.9428 285.351 44.7196 285.598C44.504 285.844 44.1999 286.025 43.8073 286.14C43.4224 286.263 42.9836 286.325 42.4909 286.325C42.1445 286.325 41.798 286.294 41.4516 286.233C41.1129 286.171 40.805 286.094 40.5278 286.002C40.2584 285.917 40.0544 285.832 39.9158 285.748L40.32 284.87C40.6433 285.024 40.9936 285.143 41.3708 285.228C41.748 285.32 42.1214 285.367 42.4909 285.367C42.9913 285.367 43.3608 285.305 43.5995 285.182C43.8381 285.059 43.9574 284.901 43.9574 284.708C43.9574 284.508 43.8766 284.354 43.7149 284.246C43.5533 284.146 43.2838 284.096 42.9066 284.096H41.1514V282.087C40.7896 281.941 40.5086 281.725 40.3084 281.44C40.1083 281.156 40.0082 280.809 40.0082 280.401C40.0082 279.77 40.2237 279.273 40.6549 278.912C41.0937 278.55 41.6787 278.369 42.4101 278.369C42.6949 278.369 42.9489 278.392 43.1722 278.438C43.4031 278.484 43.6187 278.565 43.8189 278.681L45.5163 278.069L45.8628 279.05L44.4771 279.304C44.5925 279.45 44.6772 279.616 44.7311 279.801C44.785 279.978 44.8119 280.159 44.8119 280.343C44.8119 280.775 44.708 281.136 44.5002 281.429C44.2923 281.714 44.0036 281.929 43.6341 282.076C43.2723 282.222 42.8604 282.295 42.3985 282.295ZM42.4216 281.417C42.8219 281.417 43.1376 281.317 43.3685 281.117C43.6071 280.917 43.7265 280.659 43.7265 280.343C43.7265 279.997 43.6148 279.728 43.3916 279.535C43.1683 279.343 42.845 279.246 42.4216 279.246C41.9905 279.246 41.6633 279.343 41.4401 279.535C41.2168 279.728 41.1052 279.997 41.1052 280.343C41.1052 280.659 41.2207 280.917 41.4516 281.117C41.6903 281.317 42.0136 281.417 42.4216 281.417Z" fill="#4169E1" fill-opacity="0.4"/>
<path d="M48.7668 278.369C49.5828 278.369 50.2294 278.611 50.7067 279.096C51.184 279.581 51.4227 280.251 51.4227 281.106C51.4227 281.96 51.184 282.63 50.7067 283.115C50.2294 283.592 49.5828 283.831 48.7668 283.831C47.9584 283.831 47.3195 283.592 46.8499 283.115C46.3803 282.63 46.1455 281.96 46.1455 281.106C46.1455 280.251 46.3803 279.581 46.8499 279.096C47.3195 278.611 47.9584 278.369 48.7668 278.369ZM48.7783 279.293C48.2779 279.293 47.9007 279.45 47.6467 279.766C47.4003 280.074 47.2771 280.52 47.2771 281.106C47.2771 281.691 47.4003 282.141 47.6467 282.457C47.9007 282.765 48.2779 282.919 48.7783 282.919C49.2787 282.919 49.6559 282.765 49.91 282.457C50.164 282.141 50.291 281.691 50.291 281.106C50.291 280.52 50.164 280.074 49.91 279.766C49.6559 279.45 49.2787 279.293 48.7783 279.293Z" fill="#4169E1" fill-opacity="0.4"/>
<rect x="13.3518" y="242.136" width="52.6852" height="52.6852" rx="9.63914" stroke="#F0F2F8" stroke-width="0.721716"/>
</g>
<g filter="url(#filter12_d_901_6)">
<rect x="129.909" y="241.775" width="53.407" height="53.407" rx="10" fill="white"/>
<rect x="153.384" y="257.428" width="18.4162" height="2.76243" rx="0.92081" fill="#4169E1" fill-opacity="0.4"/>
<rect x="153.384" y="264.335" width="18.4162" height="2.76243" rx="0.92081" fill="#4169E1" fill-opacity="0.4"/>
<rect x="140.978" y="271.365" width="31.0338" height="2.88686" rx="0.92081" fill="#4169E1" fill-opacity="0.4"/>
<rect x="140.978" y="277.861" width="31.0338" height="2.88686" rx="0.92081" fill="#4169E1" fill-opacity="0.4"/>
<path d="M140.735 257.684H149.071V260.606H147.626V259.066H145.705L145.673 265.655H147.102V267.036H142.656V265.655H144.085V259.066H142.18V260.606H140.735V257.684Z" fill="#4169E1" fill-opacity="0.4"/>
<rect x="130.27" y="242.136" width="52.6852" height="52.6852" rx="9.63914" stroke="#F0F2F8" stroke-width="0.721716"/>
</g>
<g filter="url(#filter13_d_901_6)">
<rect x="12.991" y="300.234" width="53.407" height="53.407" rx="10" fill="white"/>
<path d="M49.1265 335.747V337.021C49.1265 337.232 49.1173 337.446 49.0988 337.657C48.8405 340.566 46.8199 342.467 43.9043 342.467H35.9325C34.4563 342.467 33.2107 341.988 32.3157 341.119C31.9651 340.797 31.6699 340.418 31.4392 339.984C31.7437 339.614 32.0851 339.209 32.4172 338.803C32.98 338.129 33.5244 337.463 33.8658 337.03C34.3733 336.402 35.7111 334.75 37.5656 335.525C37.9439 335.682 38.2761 335.904 38.5806 336.098C39.3279 336.596 39.6416 336.744 40.1675 336.458C40.7488 336.144 41.1271 335.525 41.5238 334.879C41.736 334.537 41.9482 334.205 42.1789 333.901C43.1846 332.59 44.7347 332.239 46.0264 333.014C46.6722 333.402 47.2258 333.891 47.7425 334.389C47.8532 334.5 47.964 334.602 48.0655 334.704C48.2039 334.842 48.6652 335.304 49.1265 335.747" fill="#4169E1" fill-opacity="0.5"/>
<path opacity="0.4" d="M43.9135 324.05H35.9326C32.8048 324.05 30.7103 326.238 30.7103 329.496V337.021C30.7103 338.156 30.9687 339.163 31.4392 339.984C31.7437 339.614 32.0851 339.209 32.4172 338.802C32.9801 338.129 33.5244 337.463 33.8658 337.03C34.3733 336.402 35.7111 334.75 37.5657 335.525C37.9439 335.682 38.2761 335.904 38.5806 336.098C39.3279 336.596 39.6416 336.744 40.1675 336.457C40.7488 336.144 41.1271 335.525 41.5238 334.878C41.7361 334.537 41.9483 334.205 42.1789 333.901C43.1846 332.59 44.7347 332.239 46.0264 333.014C46.6723 333.402 47.2259 333.891 47.7425 334.389C47.8533 334.5 47.964 334.602 48.0655 334.704C48.2039 334.841 48.6652 335.303 49.1265 335.747V329.496C49.1265 326.238 47.0321 324.05 43.9135 324.05" fill="#4169E1" fill-opacity="0.5"/>
<path d="M39.416 330.308C39.416 331.605 38.3356 332.686 37.0393 332.686C35.7439 332.686 34.6635 331.605 34.6635 330.308C34.6635 329.012 35.7439 327.931 37.0393 327.931C38.3356 327.931 39.416 329.012 39.416 330.308" fill="#4169E1" fill-opacity="0.5"/>
<rect x="31.0343" y="311.059" width="18.4162" height="2.76243" rx="0.92081" fill="#4169E1" fill-opacity="0.4"/>
<rect x="31.0341" y="317.966" width="18.4162" height="2.76243" rx="0.92081" fill="#4169E1" fill-opacity="0.4"/>
<rect x="13.3518" y="300.595" width="52.6852" height="52.6852" rx="9.63914" stroke="#F0F2F8" stroke-width="0.721716"/>
</g>
<g filter="url(#filter14_d_901_6)">
<rect x="71.4498" y="300.234" width="53.407" height="53.407" rx="10" fill="white"/>
<path d="M99.3477 321.302V322.799C99.3477 323.048 99.3369 323.299 99.3152 323.547C99.0115 326.967 96.6359 329.202 93.2081 329.202H83.8359C82.1003 329.202 80.6359 328.639 79.5837 327.617C79.1715 327.239 78.8244 326.794 78.5532 326.283C78.9112 325.848 79.3125 325.372 79.7031 324.894C80.3647 324.102 81.0047 323.319 81.4061 322.81C82.0027 322.072 83.5756 320.13 85.7559 321.041C86.2007 321.226 86.5912 321.486 86.9491 321.714C87.8278 322.3 88.1966 322.474 88.8149 322.137C89.4983 321.768 89.943 321.041 90.4095 320.281C90.659 319.879 90.9084 319.489 91.1796 319.131C92.362 317.59 94.1844 317.177 95.703 318.089C96.4623 318.545 97.1132 319.12 97.7206 319.705C97.8508 319.835 97.981 319.956 98.1003 320.075C98.263 320.238 98.8054 320.781 99.3477 321.302" fill="#4169E1" fill-opacity="0.5"/>
<path opacity="0.4" d="M93.2193 307.551H83.8363C80.159 307.551 77.6967 310.123 77.6967 313.953V322.8C77.6967 324.134 78.0004 325.318 78.5536 326.284C78.9116 325.849 79.3129 325.372 79.7034 324.893C80.3651 324.102 81.0051 323.32 81.4065 322.811C82.0031 322.073 83.576 320.13 85.7563 321.042C86.201 321.226 86.5915 321.487 86.9495 321.714C87.8282 322.301 88.197 322.474 88.8153 322.137C89.4987 321.769 89.9434 321.042 90.4098 320.281C90.6593 319.879 90.9088 319.489 91.18 319.131C92.3624 317.59 94.1847 317.178 95.7034 318.089C96.4627 318.545 97.1136 319.12 97.721 319.705C97.8512 319.836 97.9814 319.956 98.1007 320.076C98.2634 320.237 98.8058 320.78 99.3481 321.302V313.953C99.3481 310.123 96.8858 307.551 93.2193 307.551" fill="#4169E1" fill-opacity="0.5"/>
<path d="M87.9316 314.908C87.9316 316.433 86.6614 317.703 85.1373 317.703C83.6144 317.703 82.3441 316.433 82.3441 314.908C82.3441 313.384 83.6144 312.114 85.1373 312.114C86.6614 312.114 87.9316 313.384 87.9316 314.908" fill="#4169E1" fill-opacity="0.5"/>
<rect x="102.484" y="310.338" width="15.8777" height="2.88686" rx="0.92081" fill="#4169E1" fill-opacity="0.4"/>
<rect x="102.484" y="316.833" width="15.8777" height="2.88686" rx="0.92081" fill="#4169E1" fill-opacity="0.4"/>
<rect x="102.484" y="324.05" width="15.8777" height="2.88686" rx="0.92081" fill="#4169E1" fill-opacity="0.4"/>
<rect opacity="0.4" x="76.502" y="331.989" width="43.3029" height="14.4343" rx="3.22283" fill="#4169E1" fill-opacity="0.5"/>
<path d="M83.7191 341.919V341.091H84.4842V337.869H83.7191V337.041H86.0773C86.7734 337.041 87.3044 337.154 87.6704 337.381C88.0365 337.607 88.2195 337.93 88.2195 338.35C88.2195 338.593 88.1565 338.808 88.0305 338.996C87.9105 339.183 87.7364 339.33 87.5084 339.435C87.7784 339.506 87.9915 339.642 88.1475 339.84C88.3095 340.034 88.3905 340.279 88.3905 340.578C88.3905 340.997 88.2375 341.326 87.9315 341.563C87.6314 341.801 87.1844 341.919 86.5904 341.919H83.7191ZM85.5193 339.103H86.4913C86.7014 339.103 86.8604 339.051 86.9684 338.946C87.0824 338.836 87.1394 338.684 87.1394 338.49C87.1394 338.076 86.8184 337.869 86.1763 337.869H85.5193V339.103ZM85.5193 341.091H86.4283C87.0164 341.091 87.3104 340.878 87.3104 340.453C87.3104 340.045 87.0344 339.84 86.4823 339.84H85.5193V341.091Z" fill="#4169E1" fill-opacity="0.4"/>
<path d="M92.709 341.72C92.505 341.831 92.283 341.916 92.043 341.977C91.8089 342.043 91.5869 342.077 91.3769 342.077C90.7649 342.077 90.3148 341.952 90.0268 341.704C89.7448 341.455 89.6038 341.069 89.6038 340.544V338.963H88.8927V338.217H90.6209V340.404C90.6209 340.702 90.6809 340.92 90.8009 341.058C90.9269 341.19 91.1309 341.257 91.4129 341.257C91.5509 341.257 91.7099 341.237 91.89 341.199C92.076 341.155 92.244 341.099 92.394 341.033V338.963H91.6829V338.217H93.4111V341.033L94.2121 341.29L93.9331 342.093L92.709 341.72Z" fill="#4169E1" fill-opacity="0.4"/>
<path d="M96.8292 342.077C96.3972 342.077 96.0462 341.958 95.7762 341.72C95.5121 341.483 95.3801 341.102 95.3801 340.578V338.963H94.6331V338.217H95.3801V337.513L96.3612 337.24V338.217H97.4593V338.963H96.3612V340.313C96.3612 340.627 96.4062 340.873 96.4962 341.05C96.5922 341.226 96.7482 341.315 96.9643 341.315C97.1323 341.315 97.3333 341.262 97.5673 341.157L97.7563 341.845C97.6183 341.905 97.4683 341.958 97.3063 342.002C97.1503 342.052 96.9913 342.077 96.8292 342.077Z" fill="#4169E1" fill-opacity="0.4"/>
<path d="M100.433 342.077C100.001 342.077 99.65 341.958 99.38 341.72C99.1159 341.483 98.9839 341.102 98.9839 340.578V338.963H98.2369V338.217H98.9839V337.513L99.965 337.24V338.217H101.063V338.963H99.965V340.313C99.965 340.627 100.01 340.873 100.1 341.05C100.196 341.226 100.352 341.315 100.568 341.315C100.736 341.315 100.937 341.262 101.171 341.157L101.36 341.845C101.222 341.905 101.072 341.958 100.91 342.002C100.754 342.052 100.595 342.077 100.433 342.077Z" fill="#4169E1" fill-opacity="0.4"/>
<path d="M103.827 338.068C104.499 338.068 105.021 338.245 105.393 338.598C105.771 338.952 105.96 339.443 105.96 340.072C105.96 340.702 105.771 341.193 105.393 341.547C105.021 341.9 104.499 342.077 103.827 342.077C103.173 342.077 102.66 341.9 102.288 341.547C101.922 341.193 101.739 340.702 101.739 340.072C101.739 339.443 101.922 338.952 102.288 338.598C102.66 338.245 103.173 338.068 103.827 338.068ZM103.836 338.822C103.476 338.822 103.203 338.929 103.017 339.145C102.837 339.36 102.747 339.669 102.747 340.072C102.747 340.481 102.837 340.793 103.017 341.008C103.203 341.218 103.476 341.323 103.836 341.323C104.208 341.323 104.487 341.218 104.673 341.008C104.859 340.793 104.952 340.481 104.952 340.072C104.952 339.669 104.859 339.36 104.673 339.145C104.487 338.929 104.208 338.822 103.836 338.822Z" fill="#4169E1" fill-opacity="0.4"/>
<path d="M106.565 341.919V341.174H107.33V339.153L106.466 338.88L106.727 338.126L107.978 338.524C108.206 338.38 108.44 338.27 108.68 338.192C108.92 338.11 109.205 338.068 109.535 338.068C110.081 338.068 110.48 338.214 110.732 338.507C110.99 338.794 111.119 339.161 111.119 339.609V341.174H111.866V341.919H109.733V341.174H110.111V339.733C110.111 339.468 110.045 339.261 109.913 339.112C109.787 338.957 109.583 338.88 109.301 338.88C109.121 338.88 108.944 338.907 108.77 338.963C108.602 339.018 108.458 339.084 108.338 339.161V341.174H108.707V341.919H106.565Z" fill="#4169E1" fill-opacity="0.4"/>
<rect x="71.8107" y="300.595" width="52.6852" height="52.6852" rx="9.63914" stroke="#F0F2F8" stroke-width="0.721716"/>
</g>
<g filter="url(#filter15_d_901_6)">
<rect x="129.909" y="300.234" width="53.407" height="53.407" rx="10" fill="white"/>
<path d="M174.444 317.725V318.869C174.444 319.059 174.436 319.251 174.42 319.441C174.188 322.054 172.372 323.761 169.753 323.761H162.592C161.266 323.761 160.147 323.331 159.343 322.551C159.028 322.261 158.763 321.921 158.556 321.531C158.829 321.199 159.136 320.835 159.434 320.47C159.94 319.864 160.429 319.267 160.735 318.878C161.191 318.314 162.393 316.829 164.059 317.526C164.399 317.667 164.697 317.866 164.971 318.04C165.642 318.488 165.924 318.62 166.396 318.363C166.919 318.081 167.258 317.526 167.615 316.945C167.805 316.638 167.996 316.34 168.203 316.066C169.107 314.889 170.499 314.574 171.66 315.27C172.24 315.618 172.737 316.058 173.201 316.505C173.301 316.604 173.4 316.697 173.491 316.788C173.616 316.912 174.03 317.327 174.444 317.725" fill="#4169E1" fill-opacity="0.5"/>
<path opacity="0.4" d="M169.762 307.217H162.592C159.782 307.217 157.901 309.183 157.901 312.109V318.869C157.901 319.888 158.133 320.793 158.556 321.531C158.829 321.198 159.136 320.834 159.434 320.469C159.94 319.864 160.429 319.266 160.736 318.877C161.191 318.313 162.393 316.829 164.059 317.525C164.399 317.666 164.697 317.865 164.971 318.04C165.642 318.487 165.924 318.62 166.397 318.362C166.919 318.081 167.259 317.525 167.615 316.944C167.806 316.637 167.996 316.339 168.203 316.066C169.107 314.888 170.499 314.573 171.66 315.27C172.24 315.618 172.737 316.058 173.201 316.505C173.301 316.604 173.4 316.696 173.491 316.787C173.616 316.911 174.03 317.326 174.445 317.724V312.109C174.445 309.183 172.563 307.217 169.762 307.217" fill="#4169E1" fill-opacity="0.5"/>
<path d="M165.722 312.84C165.722 314.005 164.751 314.975 163.586 314.975C162.423 314.975 161.452 314.005 161.452 312.84C161.452 311.675 162.423 310.704 163.586 310.704C164.751 310.704 165.722 311.675 165.722 312.84" fill="#4169E1" fill-opacity="0.5"/>
<rect width="14.4343" height="2.16515" rx="0.92081" transform="matrix(-1 0 0 1 153.004 309.616)" fill="#4169E1" fill-opacity="0.4"/>
<rect width="14.4343" height="2.16515" rx="0.92081" transform="matrix(-1 0 0 1 153.004 314.668)" fill="#4169E1" fill-opacity="0.4"/>
<rect width="14.4343" height="2.16515" rx="0.92081" transform="matrix(-1 0 0 1 153.004 319.72)" fill="#4169E1" fill-opacity="0.4"/>
<path d="M148.067 335.21V335.853C148.067 335.959 148.063 336.067 148.053 336.174C147.923 337.641 146.904 338.6 145.433 338.6H141.411C140.666 338.6 140.038 338.358 139.587 337.92C139.41 337.758 139.261 337.567 139.144 337.348C139.298 337.161 139.47 336.957 139.638 336.752C139.922 336.412 140.196 336.076 140.369 335.857C140.625 335.541 141.3 334.707 142.235 335.098C142.426 335.177 142.593 335.289 142.747 335.387C143.124 335.639 143.282 335.713 143.548 335.569C143.841 335.41 144.032 335.098 144.232 334.772C144.339 334.6 144.446 334.432 144.562 334.279C145.07 333.617 145.852 333.44 146.503 333.832C146.829 334.027 147.108 334.274 147.369 334.525C147.425 334.581 147.481 334.633 147.532 334.684C147.602 334.754 147.835 334.987 148.067 335.21" fill="#4169E1" fill-opacity="0.5"/>
<path opacity="0.4" d="M145.437 329.309H141.411C139.833 329.309 138.777 330.413 138.777 332.057V335.853C138.777 336.425 138.907 336.933 139.144 337.348C139.298 337.161 139.47 336.956 139.638 336.751C139.922 336.412 140.196 336.076 140.368 335.857C140.624 335.541 141.299 334.707 142.235 335.098C142.426 335.177 142.593 335.289 142.747 335.387C143.124 335.638 143.282 335.713 143.548 335.568C143.841 335.41 144.032 335.098 144.232 334.772C144.339 334.599 144.446 334.432 144.562 334.279C145.07 333.617 145.852 333.44 146.503 333.831C146.829 334.027 147.108 334.274 147.369 334.525C147.425 334.581 147.481 334.633 147.532 334.684C147.602 334.753 147.835 334.986 148.067 335.21V332.057C148.067 330.413 147.011 329.309 145.437 329.309" fill="#4169E1" fill-opacity="0.5"/>
<path d="M143.169 332.467C143.169 333.121 142.624 333.666 141.97 333.666C141.316 333.666 140.771 333.121 140.771 332.467C140.771 331.813 141.316 331.268 141.97 331.268C142.624 331.268 143.169 331.813 143.169 332.467" fill="#4169E1" fill-opacity="0.5"/>
<rect width="9.55212" height="1.91042" rx="0.92081" transform="matrix(-1 0 0 1 148.358 340.48)" fill="#4169E1" fill-opacity="0.4"/>
<rect width="9.55212" height="1.91042" rx="0.92081" transform="matrix(-1 0 0 1 148.36 344.301)" fill="#4169E1" fill-opacity="0.4"/>
<path d="M174.186 335.21V335.853C174.186 335.959 174.181 336.067 174.172 336.174C174.042 337.641 173.022 338.6 171.551 338.6H167.53C166.785 338.6 166.157 338.358 165.705 337.92C165.528 337.758 165.379 337.567 165.263 337.348C165.417 337.161 165.589 336.957 165.756 336.752C166.04 336.412 166.315 336.076 166.487 335.857C166.743 335.541 167.418 334.707 168.354 335.098C168.544 335.177 168.712 335.289 168.866 335.387C169.243 335.639 169.401 335.713 169.666 335.569C169.959 335.41 170.15 335.098 170.35 334.772C170.458 334.6 170.565 334.432 170.681 334.279C171.188 333.617 171.97 333.44 172.622 333.832C172.948 334.027 173.227 334.274 173.488 334.525C173.544 334.581 173.599 334.633 173.651 334.684C173.72 334.754 173.953 334.987 174.186 335.21" fill="#4169E1" fill-opacity="0.5"/>
<path opacity="0.4" d="M171.556 329.309H167.53C165.952 329.309 164.895 330.413 164.895 332.057V335.853C164.895 336.425 165.026 336.933 165.263 337.348C165.417 337.161 165.589 336.956 165.756 336.751C166.04 336.412 166.315 336.076 166.487 335.857C166.743 335.541 167.418 334.707 168.354 335.098C168.544 335.177 168.712 335.289 168.866 335.387C169.243 335.638 169.401 335.713 169.666 335.568C169.959 335.41 170.15 335.098 170.35 334.772C170.458 334.599 170.565 334.432 170.681 334.279C171.188 333.617 171.97 333.44 172.622 333.831C172.948 334.027 173.227 334.274 173.488 334.525C173.544 334.581 173.599 334.633 173.651 334.684C173.72 334.753 173.953 334.986 174.186 335.21V332.057C174.186 330.413 173.129 329.309 171.556 329.309" fill="#4169E1" fill-opacity="0.5"/>
<path d="M169.287 332.467C169.287 333.121 168.742 333.666 168.088 333.666C167.435 333.666 166.89 333.121 166.89 332.467C166.89 331.813 167.435 331.268 168.088 331.268C168.742 331.268 169.287 331.813 169.287 332.467" fill="#4169E1" fill-opacity="0.5"/>
<rect width="9.55212" height="1.91042" rx="0.92081" transform="matrix(-1 0 0 1 174.478 340.48)" fill="#4169E1" fill-opacity="0.4"/>
<rect width="9.55212" height="1.91042" rx="0.92081" transform="matrix(-1 0 0 1 174.478 344.301)" fill="#4169E1" fill-opacity="0.4"/>
<path d="M161.126 335.21V335.853C161.126 335.959 161.122 336.067 161.112 336.174C160.982 337.641 159.963 338.6 158.492 338.6H154.47C153.725 338.6 153.097 338.358 152.646 337.92C152.469 337.758 152.32 337.567 152.203 337.348C152.357 337.161 152.529 336.957 152.697 336.752C152.981 336.412 153.255 336.076 153.428 335.857C153.684 335.541 154.358 334.707 155.294 335.098C155.485 335.177 155.652 335.289 155.806 335.387C156.183 335.639 156.341 335.713 156.607 335.569C156.9 335.41 157.091 335.098 157.291 334.772C157.398 334.6 157.505 334.432 157.621 334.279C158.129 333.617 158.911 333.44 159.562 333.832C159.888 334.027 160.167 334.274 160.428 334.525C160.484 334.581 160.54 334.633 160.591 334.684C160.661 334.754 160.894 334.987 161.126 335.21" fill="#4169E1" fill-opacity="0.5"/>
<path opacity="0.4" d="M158.496 329.309H154.47C152.892 329.309 151.836 330.413 151.836 332.057V335.853C151.836 336.425 151.966 336.933 152.203 337.348C152.357 337.161 152.529 336.956 152.697 336.751C152.981 336.412 153.255 336.076 153.428 335.857C153.684 335.541 154.359 334.707 155.294 335.098C155.485 335.177 155.652 335.289 155.806 335.387C156.183 335.638 156.341 335.713 156.607 335.568C156.9 335.41 157.091 335.098 157.291 334.772C157.398 334.599 157.505 334.432 157.621 334.279C158.129 333.617 158.911 333.44 159.562 333.831C159.888 334.027 160.167 334.274 160.428 334.525C160.484 334.581 160.54 334.633 160.591 334.684C160.661 334.753 160.894 334.986 161.126 335.21V332.057C161.126 330.413 160.07 329.309 158.496 329.309" fill="#4169E1" fill-opacity="0.5"/>
<path d="M156.228 332.467C156.228 333.121 155.683 333.666 155.029 333.666C154.375 333.666 153.83 333.121 153.83 332.467C153.83 331.813 154.375 331.268 155.029 331.268C155.683 331.268 156.228 331.813 156.228 332.467" fill="#4169E1" fill-opacity="0.5"/>
<rect width="9.55212" height="1.91042" rx="0.92081" transform="matrix(-1 0 0 1 161.419 340.48)" fill="#4169E1" fill-opacity="0.4"/>
<rect width="9.55212" height="1.91042" rx="0.92081" transform="matrix(-1 0 0 1 161.419 344.301)" fill="#4169E1" fill-opacity="0.4"/>
<rect x="130.27" y="300.595" width="52.6852" height="52.6852" rx="9.63914" stroke="#F0F2F8" stroke-width="0.721716"/>
</g>
<g filter="url(#filter16_d_901_6)">
<rect x="71.4497" y="359.415" width="53.407" height="53.407" rx="10" fill="white"/>
<circle cx="98.1532" cy="386.118" r="16.5995" fill="#4169E1" fill-opacity="0.2"/>
<path fill-rule="evenodd" clip-rule="evenodd" d="M107.639 381.872C106.984 382.158 106.281 382.351 105.543 382.439C106.297 381.994 106.875 381.29 107.148 380.451C106.443 380.863 105.663 381.162 104.831 381.322C104.164 380.625 103.216 380.189 102.166 380.189C100.152 380.189 98.5176 381.797 98.5176 383.78C98.5176 384.062 98.5494 384.335 98.6119 384.6C95.5791 384.448 92.8895 383.019 91.0908 380.845C90.7772 381.377 90.5965 381.993 90.5965 382.651C90.5965 383.897 91.2408 384.997 92.2203 385.641C91.6215 385.621 91.059 385.461 90.567 385.191C90.567 385.206 90.567 385.221 90.567 385.236C90.567 386.977 91.8248 388.427 93.4941 388.759C93.1873 388.841 92.8657 388.885 92.5328 388.885C92.2975 388.885 92.0691 388.863 91.8464 388.821C92.3112 390.248 93.6588 391.286 95.2553 391.315C94.0065 392.279 92.4328 392.853 90.7238 392.853C90.4295 392.853 90.1386 392.837 89.8534 392.803C91.4681 393.823 93.3861 394.417 95.4473 394.417C102.159 394.417 105.83 388.945 105.83 384.199C105.83 384.043 105.826 383.887 105.819 383.734C106.531 383.226 107.149 382.592 107.639 381.872Z" fill="#4169E1" fill-opacity="0.4"/>
<rect x="71.8106" y="359.775" width="52.6852" height="52.6852" rx="9.63914" stroke="#F0F2F8" stroke-width="0.721716"/>
</g>
<g filter="url(#filter17_d_901_6)">
<rect x="12.991" y="359.414" width="53.407" height="53.407" rx="10" fill="white"/>
<circle cx="29.6876" cy="376.11" r="8.75682" fill="#4169E1" fill-opacity="0.2"/>
<path fill-rule="evenodd" clip-rule="evenodd" d="M34.6904 373.87C34.3451 374.021 33.9741 374.123 33.5851 374.169C33.9825 373.934 34.2876 373.563 34.4315 373.12C34.0598 373.338 33.648 373.495 33.2092 373.58C32.8573 373.212 32.3574 372.982 31.8035 372.982C30.7408 372.982 29.8788 373.831 29.8788 374.877C29.8788 375.026 29.8956 375.169 29.9285 375.309C28.3286 375.229 26.9098 374.475 25.9609 373.328C25.7954 373.609 25.7001 373.934 25.7001 374.281C25.7001 374.938 26.04 375.519 26.5567 375.858C26.2408 375.848 25.9441 375.763 25.6845 375.621C25.6845 375.629 25.6845 375.637 25.6845 375.645C25.6845 376.563 26.3481 377.328 27.2287 377.503C27.0668 377.546 26.8972 377.57 26.7216 377.57C26.5975 377.57 26.477 377.558 26.3595 377.536C26.6047 378.289 27.3156 378.836 28.1578 378.852C27.499 379.36 26.6688 379.663 25.7673 379.663C25.612 379.663 25.4586 379.655 25.3081 379.637C26.1599 380.175 27.1717 380.488 28.2591 380.488C31.8 380.488 33.7361 377.601 33.7361 375.097C33.7361 375.015 33.7343 374.933 33.7307 374.852C34.106 374.584 34.4321 374.25 34.6904 373.87Z" fill="#4169E1" fill-opacity="0.4"/>
<circle cx="29.6863" cy="396.125" r="8.75682" fill="#4169E1" fill-opacity="0.2"/>
<path fill-rule="evenodd" clip-rule="evenodd" d="M31.755 394.874H30.0713V393.526C30.0713 393.133 30.2084 392.853 30.408 392.853C30.6069 392.853 31.755 392.853 31.755 392.853V391.169L30.3499 391.172C28.4804 391.172 28.05 392.364 28.05 393.189V394.874H26.703V396.558H28.05C28.05 398.847 28.0319 401.273 28.0319 401.273H30.0705C30.0705 401.273 30.0705 398.819 30.0705 396.558H31.4175L31.755 394.874Z" fill="#4169E1" fill-opacity="0.4"/>
<circle cx="49.702" cy="376.11" r="8.75682" fill="#4169E1" fill-opacity="0.2"/>
<path d="M49.7019 375.006C49.0939 375.006 48.5981 375.501 48.5981 376.109C48.5981 376.717 49.0939 377.213 49.7019 377.213C50.31 377.213 50.8057 376.717 50.8057 376.109C50.8057 375.501 50.31 375.006 49.7019 375.006Z" fill="#4169E1" fill-opacity="0.4"/>
<path d="M52.1539 372.357H47.2464C46.531 372.357 45.9491 372.939 45.9491 373.654V378.565C45.9491 379.281 46.531 379.863 47.2464 379.863H52.1576C52.873 379.863 53.4549 379.281 53.4549 378.565V373.654C53.4512 372.939 52.8693 372.357 52.1539 372.357ZM49.7002 378.276C48.5066 378.276 47.5318 377.305 47.5318 376.108C47.5318 374.911 48.5029 373.94 49.7002 373.94C50.8974 373.94 51.8685 374.911 51.8685 376.108C51.8685 377.305 50.8937 378.276 49.7002 378.276ZM52.6617 373.684C52.6617 373.98 52.4208 374.221 52.1243 374.221C51.8277 374.221 51.5868 373.98 51.5868 373.684C51.5868 373.387 51.8277 373.146 52.1243 373.146C52.4208 373.146 52.6617 373.387 52.6617 373.684Z" fill="#4169E1" fill-opacity="0.4"/>
<circle cx="49.702" cy="396.125" r="8.75682" fill="#4169E1" fill-opacity="0.2"/>
<path d="M52.3278 393.334H47.2658C46.2723 393.334 45.4678 394.187 45.4678 395.24V397.923C45.4678 398.977 46.2723 399.83 47.2658 399.83H52.3304C53.3239 399.83 54.1284 398.977 54.1284 397.923V395.24C54.1284 394.187 53.3213 393.334 52.3278 393.334ZM51.1121 396.713L48.7445 397.91C48.6807 397.942 48.6092 397.894 48.6092 397.818V395.349C48.6092 395.273 48.6832 395.224 48.7471 395.259L51.1147 396.532C51.1836 396.57 51.1836 396.678 51.1121 396.713Z" fill="#4169E1" fill-opacity="0.4"/>
<rect x="13.3518" y="359.775" width="52.6852" height="52.6852" rx="9.63914" stroke="#F0F2F8" stroke-width="0.721716"/>
</g>
<defs>
<filter id="filter0_d_901_6" x="6.49535" y="15.1562" width="181.872" height="46.1898" filterUnits="userSpaceOnUse" color-interpolation-filters="sRGB">
<feFlood flood-opacity="0" result="BackgroundImageFix"/>
<feColorMatrix in="SourceAlpha" type="matrix" values="0 0 0 0 0 0 0 0 0 0 0 0 0 0 0 0 0 0 127 0" result="hardAlpha"/>
<feOffset dy="2.88686"/>
<feGaussianBlur stdDeviation="2.52601"/>
<feColorMatrix type="matrix" values="0 0 0 0 0.254115 0 0 0 0 0.314544 0 0 0 0 0.495833 0 0 0 0.07 0"/>
<feBlend mode="normal" in2="BackgroundImageFix" result="effect1_dropShadow_901_6"/>
<feBlend mode="normal" in="SourceGraphic" in2="effect1_dropShadow_901_6" result="shape"/>
</filter>
<filter id="filter1_d_901_6" x="7.93896" y="62.7893" width="63.511" height="63.511" filterUnits="userSpaceOnUse" color-interpolation-filters="sRGB">
<feFlood flood-opacity="0" result="BackgroundImageFix"/>
<feColorMatrix in="SourceAlpha" type="matrix" values="0 0 0 0 0 0 0 0 0 0 0 0 0 0 0 0 0 0 127 0" result="hardAlpha"/>
<feOffset dy="2.88686"/>
<feGaussianBlur stdDeviation="2.52601"/>
<feColorMatrix type="matrix" values="0 0 0 0 0.254115 0 0 0 0 0.314544 0 0 0 0 0.495833 0 0 0 0.07 0"/>
<feBlend mode="normal" in2="BackgroundImageFix" result="effect1_dropShadow_901_6"/>
<feBlend mode="normal" in="SourceGraphic" in2="effect1_dropShadow_901_6" result="shape"/>
</filter>
<filter id="filter2_d_901_6" x="66.3978" y="62.7893" width="63.511" height="63.511" filterUnits="userSpaceOnUse" color-interpolation-filters="sRGB">
<feFlood flood-opacity="0" result="BackgroundImageFix"/>
<feColorMatrix in="SourceAlpha" type="matrix" values="0 0 0 0 0 0 0 0 0 0 0 0 0 0 0 0 0 0 127 0" result="hardAlpha"/>
<feOffset dy="2.88686"/>
<feGaussianBlur stdDeviation="2.52601"/>
<feColorMatrix type="matrix" values="0 0 0 0 0.254115 0 0 0 0 0.314544 0 0 0 0 0.495833 0 0 0 0.07 0"/>
<feBlend mode="normal" in2="BackgroundImageFix" result="effect1_dropShadow_901_6"/>
<feBlend mode="normal" in="SourceGraphic" in2="effect1_dropShadow_901_6" result="shape"/>
</filter>
<filter id="filter3_d_901_6" x="124.857" y="62.7893" width="63.511" height="63.511" filterUnits="userSpaceOnUse" color-interpolation-filters="sRGB">
<feFlood flood-opacity="0" result="BackgroundImageFix"/>
<feColorMatrix in="SourceAlpha" type="matrix" values="0 0 0 0 0 0 0 0 0 0 0 0 0 0 0 0 0 0 127 0" result="hardAlpha"/>
<feOffset dy="2.88686"/>
<feGaussianBlur stdDeviation="2.52601"/>
<feColorMatrix type="matrix" values="0 0 0 0 0.254115 0 0 0 0 0.314544 0 0 0 0 0.495833 0 0 0 0.07 0"/>
<feBlend mode="normal" in2="BackgroundImageFix" result="effect1_dropShadow_901_6"/>
<feBlend mode="normal" in="SourceGraphic" in2="effect1_dropShadow_901_6" result="shape"/>
</filter>
<filter id="filter4_d_901_6" x="66.3978" y="121.97" width="63.511" height="63.511" filterUnits="userSpaceOnUse" color-interpolation-filters="sRGB">
<feFlood flood-opacity="0" result="BackgroundImageFix"/>
<feColorMatrix in="SourceAlpha" type="matrix" values="0 0 0 0 0 0 0 0 0 0 0 0 0 0 0 0 0 0 127 0" result="hardAlpha"/>
<feOffset dy="2.88686"/>
<feGaussianBlur stdDeviation="2.52601"/>
<feColorMatrix type="matrix" values="0 0 0 0 0.254115 0 0 0 0 0.314544 0 0 0 0 0.495833 0 0 0 0.07 0"/>
<feBlend mode="normal" in2="BackgroundImageFix" result="effect1_dropShadow_901_6"/>
<feBlend mode="normal" in="SourceGraphic" in2="effect1_dropShadow_901_6" result="shape"/>
</filter>
<filter id="filter5_d_901_6" x="7.93896" y="121.97" width="63.511" height="63.5109" filterUnits="userSpaceOnUse" color-interpolation-filters="sRGB">
<feFlood flood-opacity="0" result="BackgroundImageFix"/>
<feColorMatrix in="SourceAlpha" type="matrix" values="0 0 0 0 0 0 0 0 0 0 0 0 0 0 0 0 0 0 127 0" result="hardAlpha"/>
<feOffset dy="2.88686"/>
<feGaussianBlur stdDeviation="2.52601"/>
<feColorMatrix type="matrix" values="0 0 0 0 0.254115 0 0 0 0 0.314544 0 0 0 0 0.495833 0 0 0 0.07 0"/>
<feBlend mode="normal" in2="BackgroundImageFix" result="effect1_dropShadow_901_6"/>
<feBlend mode="normal" in="SourceGraphic" in2="effect1_dropShadow_901_6" result="shape"/>
</filter>
<filter id="filter6_d_901_6" x="124.857" y="121.97" width="63.511" height="63.511" filterUnits="userSpaceOnUse" color-interpolation-filters="sRGB">
<feFlood flood-opacity="0" result="BackgroundImageFix"/>
<feColorMatrix in="SourceAlpha" type="matrix" values="0 0 0 0 0 0 0 0 0 0 0 0 0 0 0 0 0 0 127 0" result="hardAlpha"/>
<feOffset dy="2.88686"/>
<feGaussianBlur stdDeviation="2.52601"/>
<feColorMatrix type="matrix" values="0 0 0 0 0.254115 0 0 0 0 0.314544 0 0 0 0 0.495833 0 0 0 0.07 0"/>
<feBlend mode="normal" in2="BackgroundImageFix" result="effect1_dropShadow_901_6"/>
<feBlend mode="normal" in="SourceGraphic" in2="effect1_dropShadow_901_6" result="shape"/>
</filter>
<filter id="filter7_d_901_6" x="7.93896" y="180.429" width="63.511" height="63.511" filterUnits="userSpaceOnUse" color-interpolation-filters="sRGB">
<feFlood flood-opacity="0" result="BackgroundImageFix"/>
<feColorMatrix in="SourceAlpha" type="matrix" values="0 0 0 0 0 0 0 0 0 0 0 0 0 0 0 0 0 0 127 0" result="hardAlpha"/>
<feOffset dy="2.88686"/>
<feGaussianBlur stdDeviation="2.52601"/>
<feColorMatrix type="matrix" values="0 0 0 0 0.254115 0 0 0 0 0.314544 0 0 0 0 0.495833 0 0 0 0.07 0"/>
<feBlend mode="normal" in2="BackgroundImageFix" result="effect1_dropShadow_901_6"/>
<feBlend mode="normal" in="SourceGraphic" in2="effect1_dropShadow_901_6" result="shape"/>
</filter>
<filter id="filter8_d_901_6" x="66.3978" y="180.429" width="63.511" height="63.511" filterUnits="userSpaceOnUse" color-interpolation-filters="sRGB">
<feFlood flood-opacity="0" result="BackgroundImageFix"/>
<feColorMatrix in="SourceAlpha" type="matrix" values="0 0 0 0 0 0 0 0 0 0 0 0 0 0 0 0 0 0 127 0" result="hardAlpha"/>
<feOffset dy="2.88686"/>
<feGaussianBlur stdDeviation="2.52601"/>
<feColorMatrix type="matrix" values="0 0 0 0 0.254115 0 0 0 0 0.314544 0 0 0 0 0.495833 0 0 0 0.07 0"/>
<feBlend mode="normal" in2="BackgroundImageFix" result="effect1_dropShadow_901_6"/>
<feBlend mode="normal" in="SourceGraphic" in2="effect1_dropShadow_901_6" result="shape"/>
</filter>
<filter id="filter9_d_901_6" x="124.857" y="180.429" width="63.511" height="63.511" filterUnits="userSpaceOnUse" color-interpolation-filters="sRGB">
<feFlood flood-opacity="0" result="BackgroundImageFix"/>
<feColorMatrix in="SourceAlpha" type="matrix" values="0 0 0 0 0 0 0 0 0 0 0 0 0 0 0 0 0 0 127 0" result="hardAlpha"/>
<feOffset dy="2.88686"/>
<feGaussianBlur stdDeviation="2.52601"/>
<feColorMatrix type="matrix" values="0 0 0 0 0.254115 0 0 0 0 0.314544 0 0 0 0 0.495833 0 0 0 0.07 0"/>
<feBlend mode="normal" in2="BackgroundImageFix" result="effect1_dropShadow_901_6"/>
<feBlend mode="normal" in="SourceGraphic" in2="effect1_dropShadow_901_6" result="shape"/>
</filter>
<filter id="filter10_d_901_6" x="66.3977" y="239.61" width="63.511" height="63.511" filterUnits="userSpaceOnUse" color-interpolation-filters="sRGB">
<feFlood flood-opacity="0" result="BackgroundImageFix"/>
<feColorMatrix in="SourceAlpha" type="matrix" values="0 0 0 0 0 0 0 0 0 0 0 0 0 0 0 0 0 0 127 0" result="hardAlpha"/>
<feOffset dy="2.88686"/>
<feGaussianBlur stdDeviation="2.52601"/>
<feColorMatrix type="matrix" values="0 0 0 0 0.254115 0 0 0 0 0.314544 0 0 0 0 0.495833 0 0 0 0.07 0"/>
<feBlend mode="normal" in2="BackgroundImageFix" result="effect1_dropShadow_901_6"/>
<feBlend mode="normal" in="SourceGraphic" in2="effect1_dropShadow_901_6" result="shape"/>
</filter>
<filter id="filter11_d_901_6" x="7.93896" y="239.61" width="63.511" height="63.511" filterUnits="userSpaceOnUse" color-interpolation-filters="sRGB">
<feFlood flood-opacity="0" result="BackgroundImageFix"/>
<feColorMatrix in="SourceAlpha" type="matrix" values="0 0 0 0 0 0 0 0 0 0 0 0 0 0 0 0 0 0 127 0" result="hardAlpha"/>
<feOffset dy="2.88686"/>
<feGaussianBlur stdDeviation="2.52601"/>
<feColorMatrix type="matrix" values="0 0 0 0 0.254115 0 0 0 0 0.314544 0 0 0 0 0.495833 0 0 0 0.07 0"/>
<feBlend mode="normal" in2="BackgroundImageFix" result="effect1_dropShadow_901_6"/>
<feBlend mode="normal" in="SourceGraphic" in2="effect1_dropShadow_901_6" result="shape"/>
</filter>
<filter id="filter12_d_901_6" x="124.857" y="239.61" width="63.511" height="63.511" filterUnits="userSpaceOnUse" color-interpolation-filters="sRGB">
<feFlood flood-opacity="0" result="BackgroundImageFix"/>
<feColorMatrix in="SourceAlpha" type="matrix" values="0 0 0 0 0 0 0 0 0 0 0 0 0 0 0 0 0 0 127 0" result="hardAlpha"/>
<feOffset dy="2.88686"/>
<feGaussianBlur stdDeviation="2.52601"/>
<feColorMatrix type="matrix" values="0 0 0 0 0.254115 0 0 0 0 0.314544 0 0 0 0 0.495833 0 0 0 0.07 0"/>
<feBlend mode="normal" in2="BackgroundImageFix" result="effect1_dropShadow_901_6"/>
<feBlend mode="normal" in="SourceGraphic" in2="effect1_dropShadow_901_6" result="shape"/>
</filter>
<filter id="filter13_d_901_6" x="7.93896" y="298.069" width="63.511" height="63.511" filterUnits="userSpaceOnUse" color-interpolation-filters="sRGB">
<feFlood flood-opacity="0" result="BackgroundImageFix"/>
<feColorMatrix in="SourceAlpha" type="matrix" values="0 0 0 0 0 0 0 0 0 0 0 0 0 0 0 0 0 0 127 0" result="hardAlpha"/>
<feOffset dy="2.88686"/>
<feGaussianBlur stdDeviation="2.52601"/>
<feColorMatrix type="matrix" values="0 0 0 0 0.254115 0 0 0 0 0.314544 0 0 0 0 0.495833 0 0 0 0.07 0"/>
<feBlend mode="normal" in2="BackgroundImageFix" result="effect1_dropShadow_901_6"/>
<feBlend mode="normal" in="SourceGraphic" in2="effect1_dropShadow_901_6" result="shape"/>
</filter>
<filter id="filter14_d_901_6" x="66.3978" y="298.068" width="63.511" height="63.511" filterUnits="userSpaceOnUse" color-interpolation-filters="sRGB">
<feFlood flood-opacity="0" result="BackgroundImageFix"/>
<feColorMatrix in="SourceAlpha" type="matrix" values="0 0 0 0 0 0 0 0 0 0 0 0 0 0 0 0 0 0 127 0" result="hardAlpha"/>
<feOffset dy="2.88686"/>
<feGaussianBlur stdDeviation="2.52601"/>
<feColorMatrix type="matrix" values="0 0 0 0 0.254115 0 0 0 0 0.314544 0 0 0 0 0.495833 0 0 0 0.07 0"/>
<feBlend mode="normal" in2="BackgroundImageFix" result="effect1_dropShadow_901_6"/>
<feBlend mode="normal" in="SourceGraphic" in2="effect1_dropShadow_901_6" result="shape"/>
</filter>
<filter id="filter15_d_901_6" x="124.857" y="298.068" width="63.511" height="63.511" filterUnits="userSpaceOnUse" color-interpolation-filters="sRGB">
<feFlood flood-opacity="0" result="BackgroundImageFix"/>
<feColorMatrix in="SourceAlpha" type="matrix" values="0 0 0 0 0 0 0 0 0 0 0 0 0 0 0 0 0 0 127 0" result="hardAlpha"/>
<feOffset dy="2.88686"/>
<feGaussianBlur stdDeviation="2.52601"/>
<feColorMatrix type="matrix" values="0 0 0 0 0.254115 0 0 0 0 0.314544 0 0 0 0 0.495833 0 0 0 0.07 0"/>
<feBlend mode="normal" in2="BackgroundImageFix" result="effect1_dropShadow_901_6"/>
<feBlend mode="normal" in="SourceGraphic" in2="effect1_dropShadow_901_6" result="shape"/>
</filter>
<filter id="filter16_d_901_6" x="66.3977" y="357.249" width="63.511" height="63.511" filterUnits="userSpaceOnUse" color-interpolation-filters="sRGB">
<feFlood flood-opacity="0" result="BackgroundImageFix"/>
<feColorMatrix in="SourceAlpha" type="matrix" values="0 0 0 0 0 0 0 0 0 0 0 0 0 0 0 0 0 0 127 0" result="hardAlpha"/>
<feOffset dy="2.88686"/>
<feGaussianBlur stdDeviation="2.52601"/>
<feColorMatrix type="matrix" values="0 0 0 0 0.254115 0 0 0 0 0.314544 0 0 0 0 0.495833 0 0 0 0.07 0"/>
<feBlend mode="normal" in2="BackgroundImageFix" result="effect1_dropShadow_901_6"/>
<feBlend mode="normal" in="SourceGraphic" in2="effect1_dropShadow_901_6" result="shape"/>
</filter>
<filter id="filter17_d_901_6" x="7.93896" y="357.249" width="63.511" height="63.511" filterUnits="userSpaceOnUse" color-interpolation-filters="sRGB">
<feFlood flood-opacity="0" result="BackgroundImageFix"/>
<feColorMatrix in="SourceAlpha" type="matrix" values="0 0 0 0 0 0 0 0 0 0 0 0 0 0 0 0 0 0 127 0" result="hardAlpha"/>
<feOffset dy="2.88686"/>
<feGaussianBlur stdDeviation="2.52601"/>
<feColorMatrix type="matrix" values="0 0 0 0 0.254115 0 0 0 0 0.314544 0 0 0 0 0.495833 0 0 0 0.07 0"/>
<feBlend mode="normal" in2="BackgroundImageFix" result="effect1_dropShadow_901_6"/>
<feBlend mode="normal" in="SourceGraphic" in2="effect1_dropShadow_901_6" result="shape"/>
</filter>
</defs>
</svg>
